<?xml version="1.0" encoding="UTF-8" standalone="no"?>
<!-- Created with Inkscape (http://www.inkscape.org/) -->

<svg
   width="210mm"
   height="297mm"
   viewBox="0 0 210 297"
   version="1.1"
   id="svg1"
   sodipodi:docname="aks-glava.svg"
   inkscape:version="1.4 (86a8ad7, 2024-10-11)"
   xmlns:inkscape="http://www.inkscape.org/namespaces/inkscape"
   xmlns:sodipodi="http://sodipodi.sourceforge.net/DTD/sodipodi-0.dtd"
   xmlns="http://www.w3.org/2000/svg"
   xmlns:svg="http://www.w3.org/2000/svg">
  <sodipodi:namedview
     id="namedview1"
     pagecolor="#ffffff"
     bordercolor="#000000"
     borderopacity="0.25"
     inkscape:showpageshadow="2"
     inkscape:pageopacity="0.0"
     inkscape:pagecheckerboard="0"
     inkscape:deskcolor="#d1d1d1"
     inkscape:document-units="mm"
     inkscape:zoom="1.0806047"
     inkscape:cx="273.92071"
     inkscape:cy="474.27151"
     inkscape:window-width="2400"
     inkscape:window-height="1494"
     inkscape:window-x="-11"
     inkscape:window-y="-11"
     inkscape:window-maximized="1"
     inkscape:current-layer="layer1" />
  <defs
     id="defs1" />
  <g
     inkscape:label="Plast 1"
     inkscape:groupmode="layer"
     id="layer1">
    <path
       id="path193"
       d="M 284.26818,191.66946 H -74.065408 V 105.56875 H 284.26818 Z"
       style="fill:#ffffff;fill-opacity:1;fill-rule:evenodd;stroke:none;stroke-width:0.352778" />
    <path
       id="path194"
       d="m -74.065408,137.15415 c 81.2813013,-8.6789 182.579288,-16.54292 260.580708,-6.1117 70.93969,9.48799 92.40667,16.95549 92.40667,16.95549 l 5.34621,1.43061 v 26.37561 c -24.64911,-7.6714 -56.20579,-15.72902 -94.5685,-20.60942 -85.23668,-10.844 -185.7510027,-23.7194 -263.765088,-9.48379 z"
       style="fill:#a0cf6b;fill-opacity:1;fill-rule:evenodd;stroke:none;stroke-width:0.352778" />
    <path
       id="path195"
       d="m -74.065408,137.15415 c 81.2813013,-8.6789 182.579288,-16.54292 260.580708,-6.1117 70.93969,9.48799 92.40667,16.95549 92.40667,16.95549 l 5.34621,1.43061 m 0,26.37561 c -24.64911,-7.6714 -56.20579,-15.72902 -94.5685,-20.60942 -85.23668,-10.844 -185.7510027,-23.7194 -263.765088,-9.48379"
       style="fill:none;stroke:#ffffff;stroke-width:0.19999;stroke-linecap:butt;stroke-linejoin:miter;stroke-miterlimit:22.9256;stroke-dasharray:none;stroke-opacity:1" />
    <path
       id="path196"
       d="M -74.065408,124.50625 C 9.2916023,115.53003 153.72989,101.92685 284.26818,114.23763 v 38.85283 C 157.57799,121.37126 40.838401,124.39636 -74.065408,138.09984 Z"
       style="fill:#ab0c0c;fill-opacity:1;fill-rule:evenodd;stroke:none;stroke-width:0.352778" />
    <path
       id="path197"
       d="M -74.065408,124.50625 C 9.2916023,115.53003 153.72989,101.92685 284.26818,114.23763 m 0,38.85283 C 157.57799,121.37126 40.838401,124.39636 -74.065408,138.09984"
       style="fill:none;stroke:#ffffff;stroke-width:0.19999;stroke-linecap:butt;stroke-linejoin:miter;stroke-miterlimit:22.9256;stroke-dasharray:none;stroke-opacity:1" />
    <path
       id="path198"
       d="m 284.26818,118.46024 c -85.56399,-7.3545 -189.960595,-7.15729 -231.605586,-3.1509 -36.5331,3.51532 -88.195287,11.03972 -126.728002,17.00431 v -26.7449 H 284.26818 Z"
       style="fill:#ff8714;fill-opacity:1;fill-rule:evenodd;stroke:none;stroke-width:0.352778" />
    <path
       id="path199"
       d="m 284.26818,118.46024 c -85.56399,-7.3545 -189.960595,-7.15729 -231.605586,-3.1509 -36.5331,3.51532 -88.195287,11.03972 -126.728002,17.00431"
       style="fill:none;stroke:#ffffff;stroke-width:0.19999;stroke-linecap:butt;stroke-linejoin:miter;stroke-miterlimit:22.9256;stroke-dasharray:none;stroke-opacity:1" />
    <path
       id="path205"
       d="m 5.3695956,149.49735 c 0,1.1921 -0.1900061,2.2522 -0.5700889,3.18018 -0.3800122,0.92791 -0.8931274,1.65612 -1.5392046,2.1844 -0.6461125,0.52832 -1.3817952,0.79252 -2.207013,0.79252 -0.81438741,0 -1.54749487,-0.2642 -2.1990048,-0.79252 -0.6514747,-0.52828 -1.1673064,-1.25649 -1.5472833,-2.1844 -0.380118,-0.92798 -0.5700889,-1.98808 -0.5700889,-3.18018 0,-1.19211 0.1899709,-2.25221 0.5700889,-3.18019 0.3799769,-0.92791 0.8958086,-1.6595 1.5472833,-2.19463 0.65150993,-0.53509 1.38990906,-0.80257 2.2151973,-0.80257 0.8144228,0 1.544708,0.26748 2.1908205,0.80257 0.6460772,0.53513 1.1591924,1.26672 1.5392046,2.19463 0.3800828,0.92798 0.5700889,1.98808 0.5700889,3.18019 z m -3.1273043,0 c 0,-0.52829 -0.051611,-0.98891 -0.1547989,-1.3818 -0.1030816,-0.39292 -0.2442986,-0.70111 -0.4235097,-0.92459 -0.1791052,-0.22352 -0.3826933,-0.33532 -0.6106936,-0.33532 -0.23890105,0 -0.45070882,0.1118 -0.63528214,0.33532 -0.1846086,0.22348 -0.32850665,0.53167 -0.43162359,0.92459 -0.1031875,0.39289 -0.15469305,0.85351 -0.15469305,1.3818 0,0.52828 0.0515055,0.9889 0.15469305,1.38179 0.10311694,0.39289 0.24701499,0.69769 0.43162359,0.9144 0.18457332,0.21682 0.39638109,0.32512 0.63528214,0.32512 0.2280003,0 0.4315884,-0.1083 0.6106936,-0.32512 0.1792111,-0.21671 0.3204281,-0.52151 0.4235097,-0.9144 0.1031875,-0.39289 0.1547989,-0.85351 0.1547989,-1.38179"
       style="fill:#ffffff;fill-opacity:1;fill-rule:nonzero;stroke:none;stroke-width:0.352778" />
    <path
       id="path221"
       d="m 77.057106,125.02805 -0.04671,-2.6773 c -0.119098,0.073 -0.244017,0.12918 -0.373521,0.16869 -0.128588,0.0394 -0.275202,0.0686 -0.439597,0.0892 l -0.0145,-0.83072 c 0.233116,-0.0431 0.449827,-0.10978 0.649393,-0.19918 0.200414,-0.0894 0.404707,-0.21001 0.612917,-0.36241 l 0.651016,-0.0114 0.06639,3.80379 z m 4.469588,-2.09991 c 0.01139,0.64999 -0.131092,1.16191 -0.427708,1.53472 -0.296404,0.37289 -0.710283,0.56349 -1.243506,0.57277 -0.326778,0.006 -0.611893,-0.0372 -0.856298,-0.13039 l -0.01489,-0.85368 c 0.07348,0.051 0.181504,0.0934 0.322898,0.1282 0.141499,0.0347 0.268393,0.0511 0.380894,0.0491 0.259609,-0.005 0.456706,-0.0798 0.592314,-0.2257 0.134796,-0.14581 0.201083,-0.35783 0.199778,-0.6368 l -0.0151,1.7e-4 c -0.159279,0.211 -0.393982,0.3187 -0.705697,0.32421 -0.185102,0.003 -0.355988,-0.0416 -0.512692,-0.13551 -0.155716,-0.0929 -0.2794,-0.22539 -0.370099,-0.39567 -0.08971,-0.17032 -0.137513,-0.36611 -0.141287,-0.58752 -0.0048,-0.27368 0.04847,-0.51558 0.159984,-0.72478 0.111513,-0.2093 0.27171,-0.37162 0.479602,-0.48602 0.208103,-0.1143 0.448909,-0.17339 0.722489,-0.17819 0.283421,-0.005 0.534423,0.0642 0.753215,0.2074 0.218582,0.1433 0.385093,0.3441 0.497699,0.6035 0.112607,0.25939 0.172085,0.57019 0.1784,0.93419 z m -1.104018,-0.4662 c -0.0021,-0.12668 -0.03238,-0.23329 -0.09059,-0.3218 -0.0592,-0.0884 -0.136102,-0.13138 -0.230788,-0.12968 -0.09391,0.002 -0.170321,0.041 -0.230116,0.1174 -0.06068,0.0755 -0.0888,0.1929 -0.08597,0.35059 0.0025,0.1469 0.03457,0.25799 0.0961,0.33221 0.06237,0.0751 0.139277,0.1119 0.23047,0.11028 0.103717,-0.002 0.182633,-0.0449 0.235126,-0.12989 0.05359,-0.0842 0.07818,-0.19449 0.07578,-0.32911 m 4.288331,0.413 c 0.0114,0.64999 -0.131127,1.16191 -0.427708,1.53472 -0.296403,0.37289 -0.710318,0.56349 -1.243506,0.57277 -0.326813,0.006 -0.611893,-0.0372 -0.856297,-0.13038 l -0.01492,-0.85369 c 0.07352,0.051 0.181504,0.0934 0.322933,0.1282 0.141499,0.0347 0.268393,0.0511 0.380894,0.0491 0.259574,-0.004 0.456706,-0.0798 0.592279,-0.22567 0.134796,-0.14581 0.201118,-0.35783 0.199813,-0.6368 l -0.0151,1.7e-4 c -0.159314,0.211 -0.394017,0.3187 -0.705697,0.32421 -0.185102,0.003 -0.356023,-0.0416 -0.512692,-0.1355 -0.155716,-0.0929 -0.279399,-0.22539 -0.370099,-0.39568 -0.08971,-0.17032 -0.137512,-0.36611 -0.141322,-0.58752 -0.0048,-0.27368 0.04851,-0.51558 0.16002,-0.72478 0.111477,-0.2093 0.271674,-0.37161 0.479601,-0.48602 0.208104,-0.1143 0.448874,-0.17339 0.722489,-0.17819 0.283386,-0.005 0.534388,0.0642 0.75318,0.2074 0.218617,0.1433 0.385128,0.3441 0.497734,0.6035 0.112572,0.25939 0.172085,0.57019 0.1784,0.93419 z m -1.104018,-0.4662 c -0.0021,-0.12668 -0.03239,-0.23329 -0.09059,-0.3218 -0.0592,-0.0884 -0.136102,-0.13138 -0.230823,-0.12968 -0.09387,0.002 -0.170285,0.041 -0.230081,0.1174 -0.06071,0.0755 -0.08879,0.1929 -0.08601,0.35059 0.0025,0.1469 0.03461,0.25799 0.0961,0.33221 0.06241,0.0751 0.139312,0.11187 0.230505,0.11028 0.103717,-0.002 0.182598,-0.0449 0.235091,-0.12989 0.05362,-0.0842 0.07821,-0.19449 0.07581,-0.32911 m 3.965399,-1.2362 0.04089,2.34512 0.526132,-0.009 0.01288,0.73688 -0.528779,0.009 0.01118,0.63849 -0.973384,0.017 -0.01111,-0.63849 -1.574694,0.0275 -0.0133,-0.76518 c 0.270793,-0.32283 0.539786,-0.69702 0.806909,-1.12243 0.267194,-0.42549 0.4826,-0.83227 0.646677,-1.22058 z m -0.937684,2.3622 -0.01901,-1.08931 c -0.1524,0.35352 -0.365796,0.72041 -0.637293,1.10081 z m 1.986986,0.37909 -0.01298,-0.74478 1.418695,-0.0248 0.01298,0.74478 z m 2.044417,0.96862 -0.0052,-0.29841 c -0.0037,-0.21078 0.0188,-0.39458 0.0683,-0.55139 0.04872,-0.15681 0.127706,-0.30431 0.23689,-0.4426 0.10922,-0.13832 0.300814,-0.31799 0.573511,-0.53721 0.194698,-0.15921 0.323815,-0.27319 0.387315,-0.34251 0.06339,-0.0693 0.11109,-0.13659 0.141781,-0.20087 0.03069,-0.0652 0.04551,-0.13451 0.0442,-0.20892 -0.0043,-0.24719 -0.155187,-0.36858 -0.452896,-0.36339 -0.301907,0.005 -0.586987,0.12019 -0.852381,0.34449 l -0.01581,-0.90509 c 0.203694,-0.10721 0.394582,-0.1832 0.572805,-0.2279 0.17907,-0.0448 0.361986,-0.0684 0.550581,-0.0717 0.404812,-0.007 0.720019,0.084 0.944809,0.2741 0.224684,0.1892 0.340184,0.45911 0.346287,0.80899 0.0047,0.26741 -0.04978,0.49611 -0.16249,0.68503 -0.112889,0.18887 -0.324591,0.38738 -0.635494,0.59489 -0.238195,0.16009 -0.395605,0.27619 -0.473216,0.34928 -0.07751,0.074 -0.116311,0.13501 -0.117192,0.18553 l 1.453303,-0.0254 0.01549,0.88737 z m 6.000891,-1.8881 c -0.01122,0.6385 -0.140899,1.12169 -0.389396,1.45048 -0.249414,0.32872 -0.607413,0.48913 -1.074208,0.48091 -0.477308,-0.008 -0.831603,-0.16778 -1.062708,-0.47748 -0.230187,-0.31052 -0.33969,-0.78642 -0.328507,-1.42851 0.01122,-0.64301 0.147215,-1.12959 0.408094,-1.45912 0.260914,-0.32939 0.632213,-0.48937 1.114919,-0.48098 0.910413,0.0159 1.353784,0.65349 1.331806,1.9147 z m -1.089413,-0.0191 c 0.0065,-0.3701 -0.01531,-0.64339 -0.0635,-0.82137 -0.04928,-0.1772 -0.130986,-0.26631 -0.246979,-0.26832 -0.226731,-0.004 -0.34671,0.37221 -0.359904,1.1303 -0.0065,0.372 0.0152,0.64791 0.06438,0.82772 0.05009,0.17977 0.131692,0.27069 0.245992,0.2727 0.226624,0.004 0.346709,-0.37582 0.360009,-1.14103 m 1.457113,1.91541 0.0052,-0.29849 c 0.0037,-0.21071 0.03249,-0.3937 0.08759,-0.5486 0.05412,-0.15501 0.138113,-0.29972 0.252095,-0.43409 0.113912,-0.13441 0.31182,-0.30731 0.591926,-0.51682 0.200201,-0.1524 0.333198,-0.2618 0.399097,-0.32879 0.06579,-0.0671 0.115676,-0.13261 0.14859,-0.1959 0.03298,-0.064 0.05031,-0.13282 0.05161,-0.20722 0.0043,-0.24719 -0.142311,-0.3737 -0.44002,-0.37888 -0.301978,-0.005 -0.590797,0.0996 -0.863882,0.31439 l 0.0158,-0.90498 c 0.207292,-0.10001 0.400685,-0.1694 0.58039,-0.20782 0.180481,-0.0385 0.364102,-0.0557 0.552803,-0.0524 0.404707,0.007 0.716597,0.10901 0.934579,0.30688 0.218016,0.19692 0.324026,0.47071 0.317923,0.82053 -0.0047,0.26747 -0.0671,0.4941 -0.186408,0.67899 -0.119309,0.18478 -0.33789,0.37588 -0.655884,0.57231 -0.243523,0.1517 -0.404918,0.26229 -0.484999,0.3326 -0.08012,0.0712 -0.120932,0.13077 -0.123613,0.18129 l 1.453303,0.0254 -0.01552,0.88731 z m 5.6829,-3.6781 -0.0409,2.3452 0.52614,0.009 -0.0128,0.73681 -0.52881,-0.009 -0.0111,0.63849 -0.97338,-0.017 0.0112,-0.63849 -1.57469,-0.0275 0.0134,-0.76507 c 0.28191,-0.31323 0.56381,-0.67772 0.84561,-1.09361 0.28191,-0.41589 0.51128,-0.81499 0.68891,-1.19719 z m -1.01943,2.32809 0.019,-1.08927 c -0.16471,0.34787 -0.3907,0.70707 -0.67529,1.07777 z"
       style="fill:#ffffff;fill-opacity:1;fill-rule:nonzero;stroke:none;stroke-width:0.352778" />
    <path
       id="path222"
       d="m 112.06208,125.10315 -0.228,-1.12462 -1.80929,-0.0632 -0.326,1.10529 -1.9738,-0.0689 2.29941,-5.9884 2.2667,0.0791 1.75338,6.1299 z m -0.98439,-4.78261 -0.0417,-10e-4 c -0.008,0.0676 -0.0323,0.17798 -0.0708,0.33119 -0.0402,0.15459 -0.23361,0.81379 -0.58191,1.9775 l 1.15852,0.0405 -0.36519,-1.6625 c -0.0507,-0.24452 -0.0831,-0.47389 -0.0989,-0.68521 m 6.14309,1.1979 -0.1295,3.7067 -1.46727,-0.0513 0.12939,-3.7066 -1.35621,-0.0474 0.0399,-1.14269 4.1957,0.14658 -0.0399,1.14272 z m 1.82679,3.70769 0.16941,-4.84928 1.46162,0.051 -0.1295,3.70667 1.67079,0.0583 -0.0399,1.14271 z m 3.74932,0.17322 0.16941,-4.84929 3.01978,0.10538 -0.0399,1.14271 -1.55819,-0.0544 -0.0247,0.707 1.46438,0.0511 -0.0399,1.14282 -1.46438,-0.0511 -0.025,0.71419 1.67079,0.0583 -0.0399,1.14268 z m 6.46758,-3.4804 -0.19409,3.70381 -1.46618,-0.0769 0.19409,-3.70381 -1.35519,-0.071 0.0598,-1.1418 4.19258,0.21968 -0.0599,1.1418 z m 5.20743,2.45889 c -0.0169,0.32142 -0.11822,0.598 -0.30223,0.82691 -0.18549,0.2303 -0.43698,0.39501 -0.75318,0.49689 -0.3176,0.10051 -0.69402,0.14002 -1.13079,0.11712 -0.50751,-0.0266 -0.96732,-0.1374 -1.37933,-0.33101 l 0.0696,-1.32789 c 0.19551,0.15917 0.41271,0.29199 0.65302,0.39557 0.2418,0.10382 0.46708,0.16193 0.6791,0.173 0.15998,0.008 0.2855,-0.014 0.37648,-0.067 0.0909,-0.0531 0.13861,-0.13441 0.14429,-0.24398 0.004,-0.0792 -0.0138,-0.14961 -0.0539,-0.21251 -0.0417,-0.0614 -0.10502,-0.12111 -0.1917,-0.17759 -0.0851,-0.0566 -0.2473,-0.136 -0.48341,-0.23802 -0.76281,-0.34068 -1.12811,-0.8455 -1.09301,-1.51448 0.0245,-0.46852 0.22292,-0.834 0.59372,-1.09512 0.3695,-0.26251 0.85538,-0.37719 1.4537,-0.3459 0.16869,0.009 0.32409,0.0228 0.46609,0.0447 0.14051,0.0204 0.26941,0.0444 0.38371,0.0707 0.11568,0.0263 0.2751,0.0737 0.48267,0.1409 l -0.0646,1.23271 c -0.39628,-0.2449 -0.79118,-0.37691 -1.18629,-0.39758 -0.1615,-0.008 -0.29432,0.015 -0.39691,0.0703 -0.10128,0.0569 -0.1561,0.13642 -0.16168,0.2431 -0.005,0.101 0.0307,0.18673 0.10799,0.25721 0.0758,0.072 0.23851,0.1657 0.4881,0.28582 0.49121,0.22807 0.83559,0.46877 1.03061,0.72048 0.19628,0.25319 0.28518,0.54402 0.2679,0.8757 m 3.1999,1.60341 -0.96692,-2.10361 c -0.0635,-0.16658 -0.1009,-0.28 -0.11078,-0.34121 l -0.0172,-7e-4 -0.12489,2.38178 -1.4605,-0.0766 0.254,-4.84558 1.4605,0.0765 -0.12082,2.30399 0.0173,0.001 c 0.0482,-0.11899 0.10308,-0.22881 0.16189,-0.32992 l 1.0704,-1.91579 1.73009,0.0907 -1.49648,2.23901 1.37368,2.61348 -1.77028,-0.0928 z m 2.10069,0.0411 0.33849,-4.84039 1.45902,0.10199 -0.33853,4.84049 z m 8.2871,0.50211 -1.16212,-2.6501 c -0.0766,-0.20931 -0.12008,-0.35282 -0.13208,-0.4288 l -0.0201,-0.001 -0.20799,2.97391 -1.82341,-0.12753 0.42312,-6.05017 1.82337,0.12749 -0.20119,2.8774 0.0201,10e-4 c 0.0639,-0.14891 0.1342,-0.2843 0.211,-0.40922 l 1.37851,-2.37109 2.16038,0.15099 -1.91858,2.76609 1.6596,3.29562 z m 2.51171,0.10417 0.33849,-4.84039 1.45898,0.10199 -0.2588,3.69983 1.66783,0.1167 -0.0798,1.1406 z m 8.12369,-1.65569 c -0.0543,0.77629 -0.2717,1.33999 -0.65239,1.69249 -0.38072,0.3526 -0.93973,0.50313 -1.67851,0.45141 -0.68841,-0.0481 -1.198,-0.27329 -1.5288,-0.67571 -0.32932,-0.40209 -0.46821,-0.98209 -0.41529,-1.73958 l 0.18577,-2.65719 1.4647,0.10237 -0.18958,2.7105 c -0.0217,0.31112 0.0192,0.55422 0.12421,0.7294 0.1034,0.1765 0.26458,0.27182 0.48069,0.28692 0.21749,0.0152 0.38859,-0.0524 0.5133,-0.20151 0.12488,-0.15039 0.19868,-0.37828 0.2202,-0.6865 l 0.19198,-2.745 1.46763,0.10262 z m 5.01471,1.149 c -0.0414,0.47322 -0.24021,0.82539 -0.595,1.05371 -0.3562,0.22821 -0.84201,0.31468 -1.46043,0.2606 l -2.20479,-0.1929 0.42291,-4.8338 2.0537,0.17971 c 1.28291,0.11218 1.89029,0.55809 1.82209,1.3377 -0.0148,0.16958 -0.0686,0.32 -0.1615,0.45388 -0.0942,0.13229 -0.22719,0.24532 -0.40178,0.33592 -0.17473,0.0919 -0.36223,0.14799 -0.5625,0.16809 l -10e-4,0.0143 c 0.22627,0.0459 0.42598,0.133 0.59778,0.25672 0.173,0.12527 0.30202,0.27428 0.38562,0.44527 0.085,0.17131 0.12048,0.3453 0.1051,0.52081 z m -1.53113,-2.0774 c 0.0261,-0.29909 -0.19519,-0.4692 -0.66548,-0.5103 l -0.26899,-0.0236 -0.08,0.91472 0.42139,0.0369 c 0.16111,0.0141 0.2988,-0.0188 0.40982,-0.096 0.10968,-0.0774 0.17127,-0.185 0.18327,-0.3217 z m -0.0157,1.93481 c 0.0122,-0.13949 -0.0281,-0.25891 -0.12238,-0.35701 -0.0928,-0.0995 -0.2225,-0.15568 -0.38939,-0.17029 l -0.57242,-0.0501 -0.0865,0.98799 0.48471,0.0424 c 0.19841,0.0174 0.35931,-0.0149 0.48091,-0.0956 0.12287,-0.0805 0.19138,-0.20059 0.20507,-0.3574 m 8.3016,2.2122 -0.16887,-1.135 -1.80351,-0.15779 -0.3834,1.08669 -1.96751,-0.17212 2.6096,-5.85988 2.25951,0.19769 1.4302,6.2133 z m -0.73279,-4.82759 -0.0416,-0.004 c -0.0117,0.0671 -0.0415,0.17611 -0.0881,0.3271 -0.0481,0.15229 -0.2758,0.80038 -0.68453,1.9443 l 1.15482,0.10111 -0.27771,-1.6793 c -0.0379,-0.24691 -0.0582,-0.47762 -0.0629,-0.6895 m 6.82699,3.90588 c -0.0337,0.32022 -0.14929,0.59101 -0.34508,0.81002 -0.19731,0.22027 -0.45699,0.37147 -0.77809,0.45677 -0.3224,0.0837 -0.70041,0.10351 -1.13542,0.0578 -0.50549,-0.0531 -0.95881,-0.18792 -1.3601,-0.4028 l 0.139,-1.32242 c 0.1869,0.16923 0.3968,0.31323 0.6314,0.42922 0.23601,0.11639 0.45812,0.18609 0.66911,0.20828 0.15939,0.0168 0.28589,0.001 0.37949,-0.0472 0.0936,-0.0482 0.14552,-0.127 0.15691,-0.23608 0.008,-0.0789 -0.006,-0.1501 -0.0427,-0.21501 -0.0384,-0.0636 -0.0985,-0.12651 -0.18207,-0.18751 -0.0821,-0.0609 -0.23992,-0.14859 -0.47032,-0.26289 -0.74401,-0.38008 -1.08229,-0.90328 -1.0123,-1.56961 0.0491,-0.46658 0.26632,-0.8212 0.65021,-1.0625 0.38269,-0.24288 0.874,-0.332 1.46981,-0.26938 0.16799,0.0177 0.32248,0.0398 0.4632,0.069 0.13917,0.0277 0.2667,0.0585 0.37948,0.0907 0.11409,0.0323 0.2709,0.088 0.47459,0.16599 l -0.12897,1.2277 c -0.38301,-0.26529 -0.7705,-0.4179 -1.16392,-0.45918 -0.1608,-0.0169 -0.29468,-3.5e-4 -0.40009,0.0494 -0.1041,0.0515 -0.16291,0.1281 -0.17409,0.23428 -0.0106,0.10061 0.0209,0.18803 0.0944,0.2625 0.0718,0.0758 0.22938,0.17802 0.47248,0.31101 0.4785,0.25351 0.8099,0.51192 0.99151,0.7734 0.18271,0.2631 0.2563,0.5582 0.22158,0.8885 m 2.29913,-2.08139 -0.0913,0.86868 1.43287,0.15061 -0.11959,1.1371 -1.43291,-0.1506 -0.17678,1.68282 -1.4545,-0.15293 0.50719,-4.82568 3.02662,0.3181 -0.11952,1.13711 z m 4.9337,4.20028 -0.11903,-0.91108 -1.44018,-0.15141 -0.32311,0.86469 -1.57081,-0.1651 2.1699,-4.65099 1.8034,0.18952 1.0578,4.99028 z m -0.51911,-3.87237 -0.033,-0.004 c -0.0115,0.0539 -0.0352,0.1414 -0.0753,0.2606 -0.0403,0.12062 -0.23241,0.63602 -0.57478,1.54651 l 0.92178,0.0969 -0.19809,-1.34762 c -0.027,-0.19879 -0.0396,-0.38301 -0.0406,-0.55297 m 2.60219,4.08238 0.5914,-4.8162 1.45161,0.1783 -0.45202,3.6812 1.65933,0.2038 -0.13931,1.13481 z m 6.63741,-2.94909 -0.45202,3.68128 -1.45729,-0.179 0.45202,-3.6812 -1.34701,-0.16539 0.13938,-1.13488 4.16701,0.51167 -0.13938,1.13481 z m 7.36639,4.56668 -0.97441,-2.72468 c -0.0618,-0.21421 -0.0952,-0.36029 -0.10188,-0.43702 l -0.02,-0.003 -0.4149,2.95219 -1.80999,-0.25439 0.84409,-6.006 1.80999,0.25442 -0.40149,2.85637 0.0201,0.003 c 0.0741,-0.14411 0.15359,-0.27432 0.239,-0.39352 l 1.54058,-2.26917 2.1445,0.30137 -2.10679,2.62552 1.42561,3.40328 -2.19441,-0.3084 z m 7.36049,-1.47758 c -0.0679,0.48327 -0.23149,0.9005 -0.49367,1.25148 -0.26071,0.35123 -0.59253,0.60632 -0.9954,0.76549 -0.4028,0.15911 -0.8352,0.20631 -1.2984,0.14122 -0.45032,-0.0633 -0.8461,-0.22401 -1.1878,-0.48041 -0.34001,-0.25629 -0.58851,-0.5842 -0.74101,-0.98178 -0.15392,-0.39921 -0.19819,-0.83122 -0.13251,-1.29872 0.0687,-0.48888 0.23499,-0.91457 0.49721,-1.27568 0.26229,-0.36262 0.5963,-0.62332 1.00231,-0.78341 0.40467,-0.16189 0.84698,-0.20761 1.32447,-0.14051 0.46041,0.0647 0.85792,0.22412 1.19232,0.47949 0.3344,0.25563 0.57358,0.58664 0.71758,0.99321 0.14411,0.40662 0.18242,0.84932 0.1149,1.32962 z m -1.53959,-0.1755 c 0.0554,-0.39462 0.0235,-0.71692 -0.0959,-0.9669 -0.121,-0.24892 -0.3122,-0.39239 -0.57541,-0.4294 -0.28868,-0.0406 -0.52871,0.038 -0.71949,0.23428 -0.1923,0.196 -0.31591,0.49502 -0.37201,0.8939 -0.055,0.39162 -0.0178,0.70739 0.11021,0.94841 0.1294,0.2413 0.33119,0.38188 0.60569,0.42051 0.16721,0.0235 0.32579,-0.005 0.47381,-0.0835 0.1469,-0.08 0.27108,-0.2069 0.37119,-0.37952 0.0986,-0.17268 0.1663,-0.38481 0.2019,-0.63778 m 4.67,3.02708 -1.62408,-0.22829 -0.87732,-5.0233 1.55832,0.219 0.31888,3.06271 c 0.0236,0.2468 0.0315,0.43011 0.0219,0.5498 l 0.0329,0.005 c 0.034,-0.14842 0.0958,-0.32922 0.18249,-0.54152 l 1.12649,-2.83919 1.5083,0.21199 z m 5.0545,0.73173 -0.0871,-0.91472 -1.434,-0.20151 -0.3531,0.85281 -1.56407,-0.21982 2.33087,-4.57239 1.7956,0.25242 0.88311,5.02408 z m -0.38358,-3.88811 -0.0328,-0.005 c -0.0134,0.0535 -0.0402,0.14012 -0.0844,0.25792 -0.0445,0.11899 -0.25449,0.62748 -0.62847,1.52537 l 0.91789,0.12901 -0.15102,-1.3536 c -0.02,-0.19968 -0.0262,-0.38418 -0.0212,-0.55408 m 6.1528,4.6009 c -0.41893,0.0798 -0.88802,0.0786 -1.40702,-0.004 -0.51051,-0.0808 -0.93409,-0.24882 -1.27409,-0.50151 -0.33842,-0.25379 -0.57669,-0.57662 -0.71512,-0.96679 -0.1385,-0.39031 -0.16969,-0.8206 -0.0952,-1.2912 0.0802,-0.5062 0.26109,-0.9379 0.5419,-1.29829 0.28071,-0.36051 0.6368,-0.61543 1.07019,-0.76751 0.43332,-0.15201 0.90801,-0.18651 1.4285,-0.1041 0.41339,0.0655 0.8062,0.17879 1.17831,0.34008 l -0.2112,1.33321 c -0.11991,-0.10079 -0.2697,-0.1888 -0.448,-0.26239 -0.1784,-0.0736 -0.36159,-0.12602 -0.55121,-0.15611 -0.39218,-0.0621 -0.71801,0.002 -0.98041,0.19121 -0.2625,0.1894 -0.4234,0.47678 -0.48439,0.8618 -0.0607,0.3835 0.004,0.70369 0.1955,0.96199 0.1917,0.25689 0.4764,0.41599 0.85422,0.4759 0.35077,0.0555 0.71727,0.0215 1.10197,-0.1003 z m 0.75219,-6.21591 -1.02549,0.9368 -1.05943,-0.16778 -0.68569,-1.20781 0.87549,0.13868 0.4094,0.5896 0.57591,-0.4336 z m 6.91159,5.59911 c -0.063,0.39768 -0.22479,0.72739 -0.48398,0.9888 -0.25922,0.26158 -0.59351,0.4337 -1.00012,0.51841 -0.40778,0.0831 -0.88131,0.0826 -1.4218,-0.003 -0.62731,-0.0993 -1.18389,-0.29563 -1.6709,-0.5891 l 0.26021,-1.64271 c 0.22179,0.22369 0.47491,0.41578 0.7608,0.57658 0.28599,0.16072 0.55919,0.2625 0.82148,0.30402 0.19692,0.0312 0.35651,0.0199 0.47611,-0.0342 0.11969,-0.0542 0.19021,-0.1482 0.21191,-0.28508 0.0153,-0.097 0.002,-0.18831 -0.0407,-0.26959 -0.0425,-0.0827 -0.1143,-0.16432 -0.214,-0.24582 -0.0995,-0.0815 -0.28949,-0.20221 -0.56991,-0.36071 -0.90509,-0.52338 -1.29229,-1.1986 -1.16127,-2.02569 0.0917,-0.5788 0.38618,-1.00728 0.88018,-1.28421 0.49551,-0.27679 1.11312,-0.35567 1.85321,-0.23848 0.20958,0.0332 0.401,0.0708 0.57369,0.1156 0.17272,0.0449 0.32769,0.0899 0.46771,0.1384 0.13988,0.0485 0.33359,0.12749 0.5806,0.23819 l -0.2414,1.52429 c -0.45982,-0.3549 -0.93409,-0.57189 -1.42181,-0.64908 -0.1996,-0.0316 -0.3666,-0.02 -0.50119,0.0361 -0.13462,0.0562 -0.21219,0.14919 -0.23301,0.28032 -0.0198,0.12548 0.0124,0.2359 0.0991,0.33429 0.0852,0.0983 0.27531,0.23661 0.56959,0.41769 0.58071,0.34921 0.97642,0.69261 1.18731,1.03141 0.21089,0.33888 0.28332,0.7129 0.2182,1.1236 z m 0.41529,-6.02813 -1.28158,1.17112 -1.32471,-0.2099 -0.85718,-1.50972 1.0952,0.17343 0.51329,0.73611 0.71861,-0.54102 z m -0.11617,7.95041 0.84257,-4.77858 2.97572,0.52479 -0.19851,1.126 -1.5355,-0.2708 -0.12291,0.6967 1.44311,0.25439 -0.19858,1.12621 -1.443,-0.25449 -0.12411,0.70379 1.64638,0.2903 -0.19858,1.126 z m 7.07587,1.19532 -1.27959,-2.60339 c -0.1016,-0.20564 -0.18049,-0.3895 -0.24,-0.55101 l -0.0128,-0.002 c -0.0288,0.23819 -0.0683,0.5038 -0.11998,0.79671 l -0.35373,2.00621 -1.33358,-0.23523 0.84258,-4.77859 1.36063,0.24 1.22858,2.4771 c 0.016,0.0336 0.0342,0.0721 0.0556,0.11691 0.0214,0.0448 0.0439,0.0913 0.0649,0.13889 0.0212,0.0463 0.0409,0.0923 0.0595,0.1367 0.0186,0.0443 0.0322,0.0833 0.0395,0.1168 l 0.0142,0.002 c 0.003,-0.0991 0.0269,-0.26931 0.0693,-0.50958 l 0.37779,-2.14271 1.3323,0.23499 -0.84257,4.77851 -1.26263,-0.2226 z m 5.40311,-2.80042 -0.7076,3.64081 -1.44131,-0.28011 0.70771,-3.6408 -1.33209,-0.25887 0.21809,-1.12244 4.12122,0.80102 -0.21823,1.1224 z m 4.19552,2.42422 c -0.27411,1.41009 -1.09711,1.98257 -2.46761,1.71619 -0.11049,-0.0215 -0.24102,-0.0616 -0.39021,-0.1185 -0.14951,-0.0556 -0.29909,-0.1258 -0.44881,-0.21082 l 0.2576,-1.32499 c 0.0982,0.10001 0.21082,0.18651 0.34061,0.26021 0.1295,0.0752 0.23961,0.1217 0.33031,0.13931 0.2565,0.0499 0.46319,0.008 0.6217,-0.1263 0.15839,-0.13391 0.2698,-0.3666 0.33429,-0.69822 l 0.51459,-2.64738 1.43832,0.27958 z m 5.04158,0.76609 c -0.14849,0.76391 -0.433,1.29688 -0.8539,1.60031 -0.42069,0.3036 -0.99399,0.38481 -1.72099,0.24348 -0.67741,-0.13158 -1.1557,-0.4173 -1.435,-0.85689 -0.27791,-0.43932 -0.34501,-1.03191 -0.2002,-1.7773 l 0.50829,-2.61472 1.4412,0.28011 -0.51841,2.66721 c -0.0595,0.30611 -0.0485,0.55242 0.0342,0.739 0.0811,0.18778 0.22959,0.30208 0.44217,0.34339 0.21403,0.0416 0.39211,-0.005 0.534,-0.1374 0.14231,-0.13409 0.24331,-0.3513 0.30233,-0.65458 l 0.52497,-2.70112 1.4442,0.28071 -0.50299,2.5878 z m 2.92879,2.76599 -0.13709,-1.0977 c -0.025,-0.21488 -0.0806,-0.39197 -0.16499,-0.52949 -0.0855,-0.13931 -0.19212,-0.22091 -0.31919,-0.24789 l -0.0565,-0.012 -0.3545,1.66769 -1.43048,-0.3041 1.00877,-4.7462 1.9008,0.404 c 0.66371,0.14111 1.13061,0.35402 1.40222,0.63899 0.27008,0.28473 0.35888,0.64452 0.2667,1.07812 -0.0696,0.32759 -0.21939,0.58061 -0.45152,0.76299 -0.2304,0.18129 -0.53831,0.28261 -0.92389,0.30551 l -0.004,0.0126 c 0.18729,0.10492 0.3326,0.24049 0.43737,0.40749 0.10302,0.16793 0.17922,0.3996 0.22691,0.696 l 0.21072,1.30679 -1.61262,-0.34279 z m 0.5533,-3.26968 c 0.0335,-0.15823 0.0123,-0.29401 -0.0653,-0.40803 -0.0779,-0.11239 -0.22048,-0.19138 -0.42668,-0.23519 l -0.2951,-0.0628 -0.23089,1.08603 0.25848,0.0549 c 0.19201,0.0408 0.35761,0.0185 0.49759,-0.064 0.1403,-0.0838 0.22701,-0.20701 0.2619,-0.37091"
       style="fill:#231f20;fill-opacity:1;fill-rule:nonzero;stroke:none;stroke-width:0.352778" />
  </g>
</svg>
