<?xml version="1.0" encoding="utf-8"?>
<!-- Generator: Adobe Illustrator 27.5.0, SVG Export Plug-In . SVG Version: 6.00 Build 0)  -->
<svg version="1.1" id="OBJECTS" xmlns="http://www.w3.org/2000/svg" xmlns:xlink="http://www.w3.org/1999/xlink" x="0px" y="0px"
	 viewBox="0 0 750 500" style="enable-background:new 0 0 750 500;" xml:space="preserve">
<g>
	<g>
		<defs>
			<ellipse id="SVGID_1_" cx="368.789" cy="257.53" rx="353.889" ry="193.939"/>
		</defs>
		<clipPath id="SVGID_00000029046975128496049760000017315852903683281552_">
			<use xlink:href="#SVGID_1_"  style="overflow:visible;"/>
		</clipPath>
		<g style="clip-path:url(#SVGID_00000029046975128496049760000017315852903683281552_);">
			<g>
				<path style="fill:#B2E6EE;" d="M675.814-40.119c1.662-0.192,3.325-0.385,4.987-0.577c0.237-12.896-14.597-22.016-27.369-20.224
					c-12.773,1.792-23.14,11.102-31.552,20.878c-8.412,9.776-15.987,20.67-26.823,27.665
					c-20.284,13.095-48.216,10.139-67.661,24.449c-19.853,14.611-24.385,42.173-24.8,66.82
					c-0.415,24.647,1.287,50.916-11.196,72.172c-10.809,18.405-30.343,29.595-49.005,39.956
					c-20.351,11.298-43.811,22.949-65.904,15.618c-29.315-9.726-38.519-45.855-43.506-76.336
					c-4.987-30.481-15.085-66.633-44.742-75.262c-19.198-5.586-40.206,3.096-59.628-1.653c-20.958-5.125-35.15-24.548-44.587-43.95
					c-9.437-19.402-16.363-40.652-31.067-56.441c-14.704-15.789-40.805-24.014-57.96-10.93C72.306-74.623,43.099-75.988,18.9-61.567
					C-47.166-22.195-69.9,67.755-49.671,141.955c20.228,74.201,74.639,134.367,134.023,183.238
					c55.494,45.669,117.499,84.478,185.714,107.103c68.215,22.625,143.041,28.42,212.269,9.112
					c110.648-30.86,193.856-119.871,270.975-205.006c26.604-29.37,54.513-61.525,58.86-100.914
					c4.147-37.578-14.784-74.748-41.535-101.462C743.883,7.312,709.241-22.459,675.814-40.119z"/>
				<g>
					<path style="fill:#95D9EC;" d="M379.807,331.489c-16.33,7.105-35.449-5.435-43.451-21.344
						c-8.002-15.91-8.585-34.366-12.341-51.774c-3.756-17.408-12.549-35.817-29.277-41.927c-18.714-6.836-41.242,4.026-58.843-5.311
						c-15.441-8.191-19.882-28.025-21.166-45.457c-1.284-17.432-1.751-36.674-13.597-49.527
						c-21.234-23.04-65.306-11.126-84.762-35.686c-13.874-17.514-7.539-45.082-21.141-62.808
						C81.285-0.517,51.814,0.795,33.272,14.244C14.731,27.694,4.46,49.47-5.054,70.307c-18.336,40.159-36.924,81.325-40.682,125.312
						c-3.759,43.987,10.137,92.102,45.842,118.067c22.331,16.239,50.397,22.154,77.721,26.128
						c91.648,13.328,185.802,9.209,275.937-12.071c-0.851,0.863-1.703,1.726-2.554,2.589"/>
					<path style="fill:#95D9EC;" d="M717.847,85.586c-8.096-11.43-25.735-11.984-38.02-5.255
						c-12.285,6.729-20.631,18.686-29.081,29.857c-8.449,11.172-18.173,22.468-31.504,26.767
						c-23.854,7.693-51.593-9.343-74.147,1.59c-17.537,8.5-23.743,29.877-28.59,48.753c-4.847,18.877-12.431,40.206-30.729,46.913
						c-16.157,5.922-35.106-2.122-51.009,4.451c-12.833,5.304-20.238,18.737-25.023,31.773c-4.786,13.035-8.188,27.05-17.026,37.76
						c-8.839,10.71-25.532,16.722-36.814,8.626c25.406,27.518,64.634,36.44,102.086,36.216
						c37.452-0.225,74.022-10.395,110.377-19.397c36.355-9.002,73.809-16.952,111.014-12.651c21.627,2.5,42.817,9.117,64.588,9.155
						c21.771,0.039,45.557-8.406,55.437-27.806c8.583-16.852,4.599-37.17-0.605-55.352
						C781.928,188.039,753.289,135.62,717.847,85.586z"/>
				</g>
			</g>
			<g>
				<rect x="-4.12" y="222.319" style="fill:#D43439;" width="750" height="233.094"/>
				<g>
					<g>
						<path style="fill:none;stroke:#F5F5F5;stroke-width:6.1834;stroke-miterlimit:10;" d="M-110.925,391.353
							c0,0,382.065-113.779,414.589-125.313c22.353-7.927,20.993-17.851-12.317-17.851c-33.311,0-402.271,0-402.271,0"/>
						<path style="fill:none;stroke:#F5F5F5;stroke-width:6.1834;stroke-miterlimit:10;" d="M133.642,455.413
							c0,0,221.607-177.451,239.282-193.483c17.675-16.031-14.276-22.665-91.774-22.665s-392.074,0-392.074,0"/>
						<path style="fill:none;stroke:#F5F5F5;stroke-width:6.1834;stroke-miterlimit:10;" d="M557.033,455.413
							c0,0-116.808-178.215-129.725-200.353c-12.916-22.138-64.582-24.428-152.277-24.428s-385.956,0-385.956,0"/>
						<path style="fill:none;stroke:#F5F5F5;stroke-width:6.1834;stroke-miterlimit:10;" d="M822.976,323.328
							c0,0-261.065-59.107-302.534-69.031s-74.285-23.549-201.002-23.329"/>
					</g>
					
						<line style="fill:none;stroke:#F5F5F5;stroke-width:6.1834;stroke-miterlimit:10;" x1="-95.653" y1="386.802" x2="862.121" y2="386.802"/>
				</g>
			</g>
		</g>
	</g>
	<g>
		<g>
			<ellipse style="fill:#241F36;" cx="371.403" cy="359.157" rx="101.83" ry="7.854"/>
			<g>
				<g>
					<polygon style="fill:#5F3DA5;" points="362.532,348.18 364.626,321.794 324.51,321.841 323.038,348.18 					"/>
					<g>
						
							<polygon style="fill:none;stroke:#241F36;stroke-width:0.4425;stroke-linecap:round;stroke-linejoin:round;stroke-miterlimit:10;" points="
							332.594,345.299 326.892,345.299 328.26,324.26 333.962,324.26 						"/>
						
							<polygon style="fill:none;stroke:#241F36;stroke-width:0.4425;stroke-linecap:round;stroke-linejoin:round;stroke-miterlimit:10;" points="
							341.885,345.299 336.183,345.299 337.551,324.26 343.254,324.26 						"/>
						
							<polygon style="fill:none;stroke:#241F36;stroke-width:0.4425;stroke-linecap:round;stroke-linejoin:round;stroke-miterlimit:10;" points="
							351.177,345.299 345.474,345.299 346.843,324.26 352.545,324.26 						"/>
						
							<polygon style="fill:none;stroke:#241F36;stroke-width:0.4425;stroke-linecap:round;stroke-linejoin:round;stroke-miterlimit:10;" points="
							360.468,345.299 354.766,345.299 356.134,324.26 361.836,324.26 						"/>
					</g>
				</g>
				<g>
					<polygon style="fill:#5F3DA5;" points="383.606,359.264 381.512,332.879 421.629,332.926 423.1,359.264 					"/>
					<g>
						
							<polygon style="fill:none;stroke:#241F36;stroke-width:0.4425;stroke-linecap:round;stroke-linejoin:round;stroke-miterlimit:10;" points="
							413.544,356.384 419.247,356.384 417.878,335.345 412.176,335.345 						"/>
						
							<polygon style="fill:none;stroke:#241F36;stroke-width:0.4425;stroke-linecap:round;stroke-linejoin:round;stroke-miterlimit:10;" points="
							404.253,356.384 409.955,356.384 408.587,335.345 402.885,335.345 						"/>
						
							<polygon style="fill:none;stroke:#241F36;stroke-width:0.4425;stroke-linecap:round;stroke-linejoin:round;stroke-miterlimit:10;" points="
							394.962,356.384 400.664,356.384 399.295,335.345 393.593,335.345 						"/>
						
							<polygon style="fill:none;stroke:#241F36;stroke-width:0.4425;stroke-linecap:round;stroke-linejoin:round;stroke-miterlimit:10;" points="
							385.67,356.384 391.372,356.384 390.004,335.345 384.302,335.345 						"/>
					</g>
				</g>
				<g>
					<rect x="365.505" y="327.764" style="fill:#DF95DB;" width="14.718" height="32.126"/>
					<g>
						
							<rect x="367.385" y="330.451" style="fill:none;stroke:#241F36;stroke-width:0.4425;stroke-linecap:round;stroke-linejoin:round;stroke-miterlimit:10;" width="11.122" height="27.64"/>
						<g>
							
								<line style="fill:none;stroke:#241F36;stroke-width:0.4425;stroke-linecap:round;stroke-linejoin:round;stroke-miterlimit:10;" x1="367.385" y1="335.28" x2="378.506" y2="335.28"/>
							
								<line style="fill:none;stroke:#241F36;stroke-width:0.4425;stroke-linecap:round;stroke-linejoin:round;stroke-miterlimit:10;" x1="367.385" y1="339.776" x2="378.506" y2="339.776"/>
							
								<line style="fill:none;stroke:#241F36;stroke-width:0.4425;stroke-linecap:round;stroke-linejoin:round;stroke-miterlimit:10;" x1="367.385" y1="344.271" x2="378.506" y2="344.271"/>
							
								<line style="fill:none;stroke:#241F36;stroke-width:0.4425;stroke-linecap:round;stroke-linejoin:round;stroke-miterlimit:10;" x1="367.385" y1="348.766" x2="378.506" y2="348.766"/>
							
								<line style="fill:none;stroke:#241F36;stroke-width:0.4425;stroke-linecap:round;stroke-linejoin:round;stroke-miterlimit:10;" x1="367.385" y1="353.261" x2="378.506" y2="353.261"/>
						</g>
					</g>
				</g>
			</g>
			<g>
				<g>
					<g>
						<g>
							<g>
								<path style="fill:#527BA6;" d="M345.712,292.976c0,0-0.909,9.881,0.707,13.284c1.618,3.4,4.304,4.903,7.834,14.263
									c0.23,0.612,7.507,2.105,7.356,0.134c-1.052-13.727,5.809-12.63-0.911-27.329
									C359.397,290.478,347.11,289.802,345.712,292.976z"/>
							</g>
						</g>
					</g>
					<g>
						<g>
							<g>
								<g>
									<path style="fill:#DF95DB;" d="M362.538,322.659c0,0-0.543,7.071-0.419,11.278c0.126,4.208,1.078,7.349-1.047,11.006
										c-1.062,1.824-12.438,2.138-13.753-0.518c-1.926-3.891,4.301-11.523,5.108-14.636c0.805-3.116,1.485-7.447,2.391-7.79
										C355.723,321.661,361.072,320.514,362.538,322.659z"/>
								</g>
							</g>
						</g>
						<g>
							<g>
								<g>
									<path style="fill:#E8E8E8;" d="M362.503,340.097c0,0-1.211,4.337-5.387,4.165c-4.177-0.169-9.692,1.357-9.682-4.165
										c0,0-0.601,1.98-0.479,2.777c0.123,0.793,1.296,3.81,4.739,3.492c3.444-0.317,8.792-0.745,9.378-1.423
										C361.66,344.262,362.503,340.097,362.503,340.097z"/>
								</g>
							</g>
						</g>
						<g>
							<g>
								<g>
									<path style="fill:#241F36;" d="M362.503,340.097c0,0,0.474,2.635-0.917,5.865c-1.393,3.228-12.237,2.042-13.922,0.981
										c-1.686-1.065-1.503-3.409-0.373-6.265c0,0,0.373,4.86,2.211,3.405c0,0,3.804-5.993,7.615,0.18
										C357.996,345.688,361.768,345.51,362.503,340.097z"/>
								</g>
							</g>
						</g>
						<g>
							<g>
								<g>
									<path style="fill:#241F36;" d="M359.038,333.878c0,0,0.825-8.902,2.638-11.219c1.815-2.316,0.99-4.163-2.966-4.674
										c-3.958-0.509-5-0.269-5.167,2.167c-0.097,1.449,1.402,4.896,0.957,8.203c-0.446,3.306-0.901,4.867-0.901,4.867
										L359.038,333.878z"/>
								</g>
							</g>
						</g>
						<g>
							<g>
								<g>
									<path style="fill:#D43439;" d="M362.28,336.564c0,0-1.281-1.223-2.599-1.904c-1.318-0.677-5.714-1.218-7.108-0.781
										c-2.161,0.676-3.048,1.655-3.048,1.655l0.842-1.517c0,0,1.556-2.501,5.101-2.499c2.674,0.003,5.824,1.221,6.702,3.643
										L362.28,336.564z"/>
								</g>
							</g>
						</g>
						<g>
							<g>
								<g>
									<path style="fill:#D43439;" d="M353.174,328.787c1.174-1.04,2.607-0.951,4.004-0.74c1.395,0.211,2.663,0.459,3.547,1.815
										c0.341,0.521-0.421,1.031-0.759,0.512c-1.145-1.753-4.893-1.99-6.35-0.709
										C353.167,330.066,352.729,329.179,353.174,328.787z"/>
								</g>
							</g>
						</g>
						<g>
							<g>
								<g>
									<path style="fill:#D43439;" d="M353.86,324.662c1.296-0.911,2.919-0.669,4.36-0.438c1.196,0.192,2.331,0.496,3.186,1.543
										c0.39,0.47-0.23,1.195-0.621,0.719c-1.283-1.566-4.907-2.049-6.481-0.943C353.818,325.883,353.376,325,353.86,324.662z"/>
								</g>
							</g>
						</g>
					</g>
				</g>
				<g>
					<g>
						<g>
							<g>
								<g>
									<path style="fill:#527BA6;" d="M403.081,296.276c0,0,0.834,11.375-0.774,15.753c-1.609,4.376-4.194,7.65-7.702,19.688
										c-0.229,0.792-7.502,2.696-7.356,0.159c1.019-17.669-5.839-16.272,0.846-35.178
										C389.39,293.032,401.675,292.185,403.081,296.276z"/>
								</g>
							</g>
						</g>
						<g>
							<g>
								<g>
									<g>
										<path style="fill:#DF95DB;" d="M386.716,334.781c0,0,0.579,6.283,0.446,10.02c-0.133,3.74-1.15,6.53,1.117,9.78
											c1.133,1.62,13.269,1.903,14.671-0.461c2.055-3.459-4.588-10.238-5.448-13.004c-0.861-2.768-1.586-6.617-2.551-6.924
											C393.985,333.894,388.28,332.875,386.716,334.781z"/>
									</g>
								</g>
							</g>
							<g>
								<g>
									<g>
										<path style="fill:#E8E8E8;" d="M386.754,350.276c0,0,1.29,3.85,5.746,3.699c4.455-0.152,10.339,1.207,10.327-3.699
											c0,0,0.641,1.758,0.511,2.466c-0.131,0.706-1.382,3.386-5.056,3.104c-3.672-0.284-9.377-0.662-10.003-1.265
											C387.653,353.975,386.754,350.276,386.754,350.276z"/>
									</g>
								</g>
							</g>
							<g>
								<g>
									<g>
										<path style="fill:#241F36;" d="M386.754,350.276c0,0-0.507,2.339,0.978,5.211c1.487,2.867,13.053,1.812,14.852,0.869
											c1.797-0.946,1.602-3.028,0.398-5.564c0,0-0.398,4.316-2.359,3.022c0,0-4.058-5.324-8.122,0.162
											C391.561,355.242,387.537,355.085,386.754,350.276z"/>
									</g>
								</g>
							</g>
							<g>
								<g>
									<g>
										<path style="fill:#241F36;" d="M390.449,344.748c0,0-0.879-7.911-2.814-9.968c-1.936-2.057-1.055-3.698,3.164-4.151
											c4.221-0.455,5.335-0.239,5.511,1.924c0.104,1.289-1.496,4.351-1.021,7.288c0.476,2.936,0.962,4.323,0.962,4.323
											L390.449,344.748z"/>
									</g>
								</g>
							</g>
							<g>
								<g>
									<g>
										<path style="fill:#D43439;" d="M386.991,347.138c0,0,1.366-1.091,2.773-1.694c1.405-0.602,6.094-1.084,7.582-0.695
											c2.305,0.601,3.251,1.472,3.251,1.472l-0.898-1.351c0,0-1.659-2.221-5.442-2.218c-2.853,0.002-6.213,1.085-7.149,3.239
											L386.991,347.138z"/>
									</g>
								</g>
							</g>
							<g>
								<g>
									<g>
										<path style="fill:#D43439;" d="M396.704,340.225c-1.251-0.923-2.78-0.846-4.271-0.659
											c-1.488,0.187-2.841,0.413-3.783,1.617c-0.364,0.461,0.449,0.914,0.808,0.455c1.223-1.56,5.221-1.771,6.774-0.632
											C396.712,341.362,397.18,340.574,396.704,340.225z"/>
									</g>
								</g>
							</g>
							<g>
								<g>
									<g>
										<path style="fill:#D43439;" d="M395.973,336.559c-1.382-0.809-3.114-0.592-4.651-0.388
											c-1.275,0.169-2.487,0.443-3.398,1.371c-0.416,0.419,0.245,1.064,0.663,0.641c1.368-1.392,5.233-1.822,6.912-0.842
											C396.017,337.644,396.489,336.862,395.973,336.559z"/>
									</g>
								</g>
							</g>
						</g>
					</g>
					<g>
						<g>
							<g>
								<g>
									<g>
										<path style="fill:#71BBD9;" d="M373.855,221.248c-0.082,8.42-0.573,20.662-2.293,34.813
											c-1.217,9.959-3.031,20.868-5.758,32.067c-0.877,3.607-1.838,7.237-2.914,10.876c-1.919,6.509-15.892,12.31-17.285,1.289
											c-0.666-5.212-1.252-9.709-1.696-14.323c-0.797-8.251-1.159-16.874-0.784-30.621c0.268-10.126,0.96-23.036,2.165-40.636
											c0.515-7.515,26.94-27.524,28.368-5.527C373.657,209.186,373.926,213.673,373.855,221.248z"/>
									</g>
								</g>
							</g>
							<path style="fill:#241F36;" d="M373.657,209.186c0,0,0.269,4.487,0.198,12.062c-0.082,8.42-0.573,20.662-2.293,34.813
								c-1.217,9.959-3.031,20.868-5.758,32.067c-8.73,3.347-16.408,1.458-21.895-2.158c-0.797-8.251-1.159-16.874-0.784-30.621
								c0.268-10.126,0.96-23.036,2.165-40.636C345.804,207.198,372.229,187.189,373.657,209.186z"/>
						</g>
						<g>
							<g>
								<g>
									<g>
										<path style="fill:#71BBD9;" d="M405.557,277.911c-0.632,10.469-1.931,17.85-3.335,27.966
											c-1.592,11.474-15.671,5.2-17.519-1.628c-2.259-8.399-4.014-16.741-5.383-24.81c-2.54-14.989-3.699-28.993-4.19-40.422
											c-0.292-7.009-0.339-13.057-0.292-17.759c0.094-6.928,0.385-10.975,0.385-10.975c1.803-22.946,28.145-1.625,28.684,6.217
											c0.503,7.257,0.901,13.746,1.206,19.579C406.154,255.803,406.142,268.191,405.557,277.911z"/>
									</g>
								</g>
							</g>
							<path style="fill:#241F36;" d="M405.557,277.911c-8.122-2.827-17.882-3.934-26.237,1.528
								c-2.54-14.989-3.699-28.993-4.19-40.422c-0.292-7.009-0.339-13.057-0.292-17.759c0.094-6.928,0.385-10.975,0.385-10.975
								c1.803-22.946,28.145-1.625,28.684,6.217c0.503,7.257,0.901,13.746,1.206,19.579
								C406.154,255.803,406.142,268.191,405.557,277.911z"/>
						</g>
					</g>
				</g>
			</g>
			<g>
				<g>
					<g>
						<g>
							<path style="fill:#D37681;" d="M364.273,269.976c-22.182,5.661-25.444-6.909-25.444-6.909
								c-2.48-29.391,17.857-38.935,14.677-54.162c6.356-17.969,40.879-10.557,42.582,0.359
								c-3.668,8.716,16.068,25.978,14.084,54.081c0,0-4.474,12.292-24.507,6.475C380.53,268.327,372.661,267.834,364.273,269.976z"
								/>
						</g>
					</g>
				</g>
				<g>
					<g>
						<g>
							<g>
								<g>
									<path style="fill:#71BBD9;" d="M315.235,301.15c-4.93,4.889-11.174,14.149-14.693,23.698
										c-4.607,12.5-7.386,16.195-9.501,20.818c-4.7,10.263,3.805,7.427,6.495,3.551c14.253-20.532,22.361-21.647,27.41-39.558
										C326.133,305.447,320.399,296.03,315.235,301.15z"/>
								</g>
							</g>
						</g>
						<path style="fill:#71BBD9;" d="M275.212,357.716c13.761-6.554,12.745-7.968,15.137-10.128
							c2.391-2.158,5.429,0.317,6.184,0.742c0.755,0.426,0.622,3.778,1.553,6.788c1.257,4.071,4.398,4.952,4.398,4.952
							s1.016,0.609,0.045,1.022c-0.997,0.42-1.284,0.31-2.484,0.113c-1.212-0.201-4.639-2.717-5.859-3.835
							c-1.223-1.115-12.178,3.521-15.841,3.745c-4.671,0.286-4.319-0.023-4.534-0.431c-0.074-0.139-0.029-0.633-0.029-0.633
							c-2.188,0.174-1.824-1.3-1.824-1.3L275.212,357.716z"/>
						<g>
							<g>
								<g>
									<g>
										<path style="fill:#71BBD9;" d="M355.26,269.214c-3.276,5.289-6.214,9.971-8.859,14.089
											c-12.768,19.943-18.619,27.115-22.621,30.065c-1.135,0.843-2.129,1.345-3.078,1.697
											c-9.257,3.441-10.157-2.539-9.326-5.735c0.198-0.76,0.701-2.82,1.545-5.664c2.282-7.722,7.068-21.239,15.108-30.415
											c1.205-1.38,2.493-2.667,3.85-3.814c1.451-10.45,7.736-14.593,13.002-14.571
											C357.366,254.152,356.195,267.704,355.26,269.214z"/>
									</g>
								</g>
							</g>
							<path style="fill:#D37681;" d="M355.26,269.214c-3.276,5.289-6.214,9.971-8.859,14.089
								c-8.438-1.732-14.686-6.495-18.373-10.052c1.205-1.38,2.493-2.667,3.85-3.814c1.451-10.45,7.736-14.593,13.002-14.571
								C357.366,254.152,356.195,267.704,355.26,269.214z"/>
						</g>
					</g>
					<g>
						<g>
							<g>
								<g>
									<path style="fill:#71BBD9;" d="M434.602,301.15c4.93,4.889,11.173,14.149,14.692,23.698
										c4.607,12.5,7.385,16.195,9.501,20.818c4.699,10.263-3.804,7.427-6.494,3.551c-14.254-20.532-22.361-21.647-27.41-39.558
										C423.704,305.447,429.438,296.03,434.602,301.15z"/>
								</g>
							</g>
						</g>
						<path style="fill:#71BBD9;" d="M474.625,357.716c-13.76-6.554-12.744-7.968-15.137-10.128
							c-2.391-2.158-5.428,0.317-6.184,0.742c-0.754,0.426-0.621,3.778-1.552,6.788c-1.258,4.071-4.397,4.952-4.397,4.952
							s-1.017,0.609-0.046,1.022c0.997,0.42,1.285,0.31,2.484,0.113c1.213-0.201,4.639-2.717,5.86-3.835
							c1.222-1.115,12.178,3.521,15.84,3.745c4.672,0.286,4.32-0.023,4.534-0.431c0.074-0.139,0.029-0.633,0.029-0.633
							c2.188,0.174,1.824-1.3,1.824-1.3L474.625,357.716z"/>
						<g>
							<g>
								<g>
									<g>
										<path style="fill:#71BBD9;" d="M429.132,315.064c-0.949-0.352-1.943-0.854-3.066-1.686
											c-4.038-2.971-9.959-10.24-22.984-30.612c-2.552-3.991-5.372-8.484-8.508-13.552c-0.936-1.51-2.095-15.062,10.38-14.349
											c5.266-0.023,11.551,4.121,13.001,14.571c1.663,1.404,3.207,3.009,4.635,4.738c7.571,9.141,12.123,22.013,14.323,29.481
											c0.843,2.842,1.346,4.902,1.546,5.674C439.289,312.526,438.4,318.505,429.132,315.064z"/>
									</g>
								</g>
							</g>
							<path style="fill:#D37681;" d="M422.59,274.174c-4.915,4.775-11.867,7.291-19.509,8.593
								c-2.552-3.991-5.372-8.484-8.508-13.552c-0.936-1.51-2.095-15.062,10.38-14.349c5.266-0.023,11.551,4.121,13.001,14.571
								C419.618,270.84,421.162,272.445,422.59,274.174z"/>
						</g>
					</g>
				</g>
				<path style="fill:#F5F5F5;" d="M388.942,224.795c-3.052-1.133-7.99-2.549-14.198-2.537c-6.128,0.012-11.007,1.41-14.042,2.537
					c1.143-3.998,2.286-7.996,3.43-11.993c2.131-0.823,5.556-1.849,9.868-1.897c4.635-0.051,8.302,1.051,10.495,1.897
					C385.977,216.799,387.46,220.797,388.942,224.795z"/>
			</g>
			<g>
				<g>
					<g>
						<g>
							<g>
								<g>
									<path style="fill:#71BBD9;" d="M387.051,251.227c0,0,2.464-0.156,3.427,0.651c3.145,2.633,0.194,9.668-1.013,10.787
										c-2.587,2.392-5.46-0.234-5.46-0.234S386.331,257.306,387.051,251.227z"/>
								</g>
							</g>
						</g>
					</g>
					<g>
						<g>
							<g>
								<g>
									<path style="fill:#71BBD9;" d="M361.87,251.227c0,0-2.465-0.156-3.427,0.651c-3.145,2.633-0.194,9.668,1.012,10.787
										c2.587,2.392,5.461-0.234,5.461-0.234S362.59,257.306,361.87,251.227z"/>
								</g>
							</g>
						</g>
					</g>
					<g>
						<g>
							<g>
								<path style="fill:#71BBD9;" d="M386.026,235.226c-2.995-3.183-6.933-5.615-17.661-4.098
									c-6.308,0.895-7.551,8.29-7.651,8.739c-0.97,4.251-0.336,22.586,0.286,24.98c0.624,2.394,9.21,9.95,9.976,10.415
									c0.762,0.467,5.754,0.506,7.249,0.076c1.495-0.426,8.63-8.893,9.452-10.668c0.822-1.771,0.784-13.238,0.77-15.962
									C388.436,245.987,387.496,236.79,386.026,235.226z"/>
							</g>
						</g>
					</g>
				</g>
				<path style="fill:#241F36;" d="M391.754,236.547c1.752-2.046-0.386-4.485-3.526-3.999c0.762-2.632-1.64-4.68-4.351-3.315
					c-0.274-2.046-2.262-3.509-5.327-1.365c-0.938-2.542-3.269-1.443-4.154-0.911c-0.884-0.532-3.216-1.63-4.153,0.911
					c-3.065-2.144-5.053-0.682-5.327,1.365c-2.712-1.365-5.112,0.683-4.351,3.315c-3.139-0.486-5.278,1.953-3.526,3.999
					c-1.466,0.88-0.003,2.102,0.582,3.148c0.585,1.046,2.593,16.305,2.593,16.305h0.763c0,0-1.309-5.7,0.739-7.846
					c2.048-2.144,1.366-6.924,1.366-6.924s-0.233,0.588,11.075,1.76c11.386-1.318,11.553-1.76,11.553-1.76s-0.681,4.78,1.366,6.924
					c2.048,2.146,0.739,7.846,0.739,7.846h0.764c0,0,2.008-15.26,2.593-16.305C391.757,238.649,393.22,237.427,391.754,236.547z"/>
				<g>
					
						<polyline style="fill:none;stroke:#241F36;stroke-width:0.4425;stroke-linecap:round;stroke-linejoin:round;stroke-miterlimit:10;" points="
						372.609,255.032 372.609,263.912 375.668,263.912 					"/>
					<g>
						<path style="fill:#241F36;" d="M369.147,256.291c0,0.426-0.342,0.768-0.768,0.768c-0.423,0-0.766-0.341-0.766-0.768
							c0-0.423,0.343-0.768,0.766-0.768C368.805,255.523,369.147,255.868,369.147,256.291z"/>
						<path style="fill:#241F36;" d="M379.502,256.291c0,0.426-0.345,0.768-0.771,0.768c-0.424,0-0.766-0.341-0.766-0.768
							c0-0.423,0.342-0.768,0.766-0.768C379.157,255.523,379.502,255.868,379.502,256.291z"/>
					</g>
					
						<path style="fill:none;stroke:#241F36;stroke-width:0.4425;stroke-linecap:round;stroke-linejoin:round;stroke-miterlimit:10;" d="
						M374.678,268.04c0,0,3.446,0.197,4.824-2.363"/>
					<path style="fill:#241F36;" d="M371.403,253.356c0,0.618-1.473,0-3.29,0c-1.817,0-3.29,0.618-3.29,0
						c0-0.618,1.473-2.238,3.29-2.238C369.93,251.118,371.403,252.738,371.403,253.356z"/>
					<path style="fill:#241F36;" d="M382.024,253.356c0,0.618-1.473,0-3.29,0c-1.817,0-3.29,0.618-3.29,0
						c0-0.618,1.473-2.238,3.29-2.238C380.551,251.118,382.024,252.738,382.024,253.356z"/>
				</g>
				
					<line style="fill:none;stroke:#241F36;stroke-width:0.4425;stroke-linecap:round;stroke-linejoin:round;stroke-miterlimit:10;" x1="360.793" y1="263.488" x2="360.406" y2="257.648"/>
				
					<line style="fill:none;stroke:#241F36;stroke-width:0.4425;stroke-linecap:round;stroke-linejoin:round;stroke-miterlimit:10;" x1="387.944" y1="263.488" x2="388.388" y2="256.555"/>
				
					<path style="fill:#241F36;stroke:#241F36;stroke-width:0.4425;stroke-linecap:round;stroke-linejoin:round;stroke-miterlimit:10;" d="
					M360.214,253.151c0,0-2.342-0.652-2.383,2.372"/>
				
					<path style="fill:#241F36;stroke:#241F36;stroke-width:0.4425;stroke-linecap:round;stroke-linejoin:round;stroke-miterlimit:10;" d="
					M388.683,253.151c0,0,2.195-0.814,2.602,2.372"/>
			</g>
			<g>
				
					<path style="fill:none;stroke:#241F36;stroke-width:0.4425;stroke-linecap:round;stroke-linejoin:round;stroke-miterlimit:10;" d="
					M273.781,360.05c0,0,8.748-2.285,10.113-4.041"/>
				
					<path style="fill:none;stroke:#241F36;stroke-width:0.4425;stroke-linecap:round;stroke-linejoin:round;stroke-miterlimit:10;" d="
					M318.709,312.906c0,0,0.78-1.268,1.463-1.754"/>
				
					<path style="fill:none;stroke:#241F36;stroke-width:0.4425;stroke-linecap:round;stroke-linejoin:round;stroke-miterlimit:10;" d="
					M340.484,255.819c0,0,14.188-5.986,15.419,11.167"/>
				
					<path style="fill:none;stroke:#241F36;stroke-width:0.4425;stroke-linecap:round;stroke-linejoin:round;stroke-miterlimit:10;" d="
					M475.593,360.05c0,0-8.747-2.285-10.113-4.041"/>
				
					<path style="fill:none;stroke:#241F36;stroke-width:0.4425;stroke-linecap:round;stroke-linejoin:round;stroke-miterlimit:10;" d="
					M430.664,312.906c0,0-0.78-1.268-1.463-1.754"/>
				
					<path style="fill:none;stroke:#241F36;stroke-width:0.4425;stroke-linecap:round;stroke-linejoin:round;stroke-miterlimit:10;" d="
					M408.89,255.819c0,0-14.189-5.986-15.419,11.167"/>
			</g>
		</g>
		<g>
			<g>
				<ellipse style="fill:#241F36;" cx="630.415" cy="363.326" rx="101.83" ry="7.854"/>
				<g>
					<g>
						<polygon style="fill:#5F3DA5;" points="621.544,352.349 623.638,325.963 583.521,326.011 582.049,352.349 						"/>
						<g>
							
								<polygon style="fill:none;stroke:#241F36;stroke-width:0.4425;stroke-linecap:round;stroke-linejoin:round;stroke-miterlimit:10;" points="
								591.605,349.469 585.903,349.469 587.271,328.43 592.974,328.43 							"/>
							
								<polygon style="fill:none;stroke:#241F36;stroke-width:0.4425;stroke-linecap:round;stroke-linejoin:round;stroke-miterlimit:10;" points="
								600.897,349.469 595.195,349.469 596.563,328.43 602.265,328.43 							"/>
							
								<polygon style="fill:none;stroke:#241F36;stroke-width:0.4425;stroke-linecap:round;stroke-linejoin:round;stroke-miterlimit:10;" points="
								610.188,349.469 604.486,349.469 605.854,328.43 611.557,328.43 							"/>
							
								<polygon style="fill:none;stroke:#241F36;stroke-width:0.4425;stroke-linecap:round;stroke-linejoin:round;stroke-miterlimit:10;" points="
								619.48,349.469 613.777,349.469 615.146,328.43 620.848,328.43 							"/>
						</g>
					</g>
					<g>
						<polygon style="fill:#5F3DA5;" points="642.618,363.434 640.523,337.048 680.64,337.096 682.112,363.434 						"/>
						<g>
							
								<polygon style="fill:none;stroke:#241F36;stroke-width:0.4425;stroke-linecap:round;stroke-linejoin:round;stroke-miterlimit:10;" points="
								672.556,360.553 678.258,360.553 676.89,339.514 671.188,339.514 							"/>
							
								<polygon style="fill:none;stroke:#241F36;stroke-width:0.4425;stroke-linecap:round;stroke-linejoin:round;stroke-miterlimit:10;" points="
								663.265,360.553 668.967,360.553 667.598,339.514 661.896,339.514 							"/>
							
								<polygon style="fill:none;stroke:#241F36;stroke-width:0.4425;stroke-linecap:round;stroke-linejoin:round;stroke-miterlimit:10;" points="
								653.973,360.553 659.675,360.553 658.307,339.514 652.605,339.514 							"/>
							
								<polygon style="fill:none;stroke:#241F36;stroke-width:0.4425;stroke-linecap:round;stroke-linejoin:round;stroke-miterlimit:10;" points="
								644.682,360.553 650.384,360.553 649.016,339.514 643.313,339.514 							"/>
						</g>
					</g>
					<g>
						<rect x="624.516" y="331.933" style="fill:#DF95DB;" width="14.718" height="32.126"/>
						<g>
							
								<rect x="626.396" y="334.62" style="fill:none;stroke:#241F36;stroke-width:0.4425;stroke-linecap:round;stroke-linejoin:round;stroke-miterlimit:10;" width="11.122" height="27.64"/>
							<g>
								
									<line style="fill:none;stroke:#241F36;stroke-width:0.4425;stroke-linecap:round;stroke-linejoin:round;stroke-miterlimit:10;" x1="626.396" y1="339.45" x2="637.518" y2="339.45"/>
								
									<line style="fill:none;stroke:#241F36;stroke-width:0.4425;stroke-linecap:round;stroke-linejoin:round;stroke-miterlimit:10;" x1="626.396" y1="343.945" x2="637.518" y2="343.945"/>
								
									<line style="fill:none;stroke:#241F36;stroke-width:0.4425;stroke-linecap:round;stroke-linejoin:round;stroke-miterlimit:10;" x1="626.396" y1="348.44" x2="637.518" y2="348.44"/>
								
									<line style="fill:none;stroke:#241F36;stroke-width:0.4425;stroke-linecap:round;stroke-linejoin:round;stroke-miterlimit:10;" x1="626.396" y1="352.935" x2="637.518" y2="352.935"/>
								
									<line style="fill:none;stroke:#241F36;stroke-width:0.4425;stroke-linecap:round;stroke-linejoin:round;stroke-miterlimit:10;" x1="626.396" y1="357.43" x2="637.518" y2="357.43"/>
							</g>
						</g>
					</g>
				</g>
				<g>
					<g>
						<g>
							<g>
								<g>
									<path style="fill:#D37681;" d="M602.911,295.182c0,0-0.91,10.098,0.707,13.501c1.617,3.4,4.304,4.688,7.833,14.046
										c0.231,0.613,7.508,2.105,7.357,0.134c-1.052-13.728,5.809-12.63-0.911-27.329
										C616.594,292.684,604.307,292.008,602.911,295.182z"/>
								</g>
							</g>
						</g>
						<g>
							<g>
								<g>
									<g>
										<path style="fill:#F5F5F5;" d="M619.736,324.866c0,0-0.544,7.071-0.419,11.278c0.125,4.208,1.078,7.349-1.047,11.006
											c-1.063,1.824-12.44,2.14-13.755-0.518c-1.925-3.891,4.302-11.523,5.108-14.636c0.807-3.116,1.487-7.447,2.391-7.79
											C612.92,323.867,618.27,322.72,619.736,324.866z"/>
									</g>
								</g>
							</g>
							<g>
								<g>
									<g>
										<path style="fill:#E8E8E8;" d="M619.7,342.303c0,0-1.209,4.337-5.387,4.165c-4.175-0.169-9.691,1.358-9.681-4.165
											c0,0-0.602,1.98-0.479,2.777c0.122,0.793,1.295,3.81,4.738,3.492c3.444-0.317,8.793-0.745,9.379-1.424
											C618.857,346.468,619.7,342.303,619.7,342.303z"/>
									</g>
								</g>
							</g>
							<g>
								<g>
									<g>
										<path style="fill:#241F36;" d="M619.7,342.303c0,0,0.476,2.635-0.916,5.866c-1.394,3.226-12.237,2.04-13.924,0.979
											c-1.685-1.064-1.502-3.409-0.372-6.264c0,0,0.372,4.858,2.211,3.403c0,0,3.804-5.993,7.613,0.18
											C615.193,347.894,618.967,347.716,619.7,342.303z"/>
									</g>
								</g>
							</g>
							<g>
								<g>
									<g>
										<path style="fill:#241F36;" d="M616.236,336.085c0,0,0.825-8.902,2.638-11.219c1.814-2.316,0.989-4.163-2.968-4.674
											c-3.956-0.509-5-0.269-5.167,2.167c-0.097,1.449,1.404,4.896,0.958,8.204c-0.446,3.305-0.902,4.866-0.902,4.866
											L616.236,336.085z"/>
									</g>
								</g>
							</g>
							<g>
								<g>
									<g>
										<path style="fill:#71BBD9;" d="M619.477,338.77c0,0-1.281-1.223-2.599-1.904c-1.318-0.677-5.714-1.218-7.108-0.781
											c-2.161,0.676-3.048,1.655-3.048,1.655l0.842-1.517c0,0,1.555-2.501,5.101-2.5c2.674,0.003,5.825,1.221,6.703,3.643
											L619.477,338.77z"/>
									</g>
								</g>
							</g>
							<g>
								<g>
									<g>
										<path style="fill:#71BBD9;" d="M610.373,330.993c1.173-1.04,2.605-0.951,4.003-0.74c1.395,0.212,2.664,0.459,3.548,1.815
											c0.341,0.521-0.422,1.032-0.759,0.512c-1.146-1.753-4.894-1.99-6.35-0.709
											C610.365,332.272,609.927,331.385,610.373,330.993z"/>
									</g>
								</g>
							</g>
							<g>
								<g>
									<g>
										<path style="fill:#71BBD9;" d="M611.057,326.868c1.295-0.911,2.92-0.67,4.36-0.438c1.197,0.192,2.332,0.496,3.186,1.543
											c0.391,0.47-0.23,1.195-0.621,0.719c-1.283-1.565-4.905-2.049-6.48-0.943
											C611.016,328.089,610.574,327.206,611.057,326.868z"/>
									</g>
								</g>
							</g>
						</g>
					</g>
					<g>
						<g>
							<g>
								<g>
									<g>
										<path style="fill:#D37681;" d="M660.278,298.484c0,0,1.873,10.498,0.263,14.874c-1.609,4.376-5.231,8.528-8.74,20.567
											c-0.228,0.791-7.501,2.694-7.356,0.157c1.019-17.669-5.839-16.272,0.847-35.178
											C646.588,295.238,658.874,294.392,660.278,298.484z"/>
									</g>
								</g>
							</g>
							<g>
								<g>
									<g>
										<g>
											<path style="fill:#F5F5F5;" d="M643.914,336.987c0,0,0.579,6.284,0.446,10.021c-0.134,3.74-1.15,6.53,1.117,9.78
												c1.133,1.621,13.269,1.903,14.672-0.461c2.054-3.459-4.589-10.238-5.449-13.004c-0.86-2.768-1.585-6.617-2.551-6.923
												C651.183,336.1,645.477,335.081,643.914,336.987z"/>
										</g>
									</g>
								</g>
								<g>
									<g>
										<g>
											<path style="fill:#E8E8E8;" d="M643.952,352.482c0,0,1.29,3.85,5.746,3.699c4.455-0.153,10.338,1.208,10.328-3.699
												c0,0,0.642,1.758,0.511,2.466c-0.131,0.706-1.381,3.386-5.055,3.104c-3.674-0.284-9.378-0.662-10.004-1.265
												C644.851,356.181,643.952,352.482,643.952,352.482z"/>
										</g>
									</g>
								</g>
								<g>
									<g>
										<g>
											<path style="fill:#241F36;" d="M643.952,352.482c0,0-0.507,2.339,0.979,5.21c1.485,2.867,13.053,1.814,14.85,0.869
												c1.798-0.946,1.603-3.028,0.398-5.564c0,0-0.398,4.316-2.358,3.022c0,0-4.057-5.324-8.123,0.162
												C648.759,357.448,644.734,357.291,643.952,352.482z"/>
										</g>
									</g>
								</g>
								<g>
									<g>
										<g>
											<path style="fill:#241F36;" d="M647.647,346.954c0,0-0.88-7.91-2.814-9.968c-1.935-2.057-1.056-3.698,3.165-4.15
												c4.221-0.455,5.334-0.24,5.511,1.922c0.104,1.289-1.497,4.351-1.021,7.289c0.475,2.936,0.962,4.325,0.962,4.325
												L647.647,346.954z"/>
										</g>
									</g>
								</g>
								<g>
									<g>
										<g>
											<path style="fill:#71BBD9;" d="M644.188,349.344c0,0,1.368-1.091,2.773-1.694c1.407-0.602,6.096-1.083,7.581-0.695
												c2.306,0.601,3.252,1.472,3.252,1.472l-0.898-1.351c0,0-1.659-2.221-5.441-2.218c-2.853,0.002-6.214,1.085-7.15,3.238
												L644.188,349.344z"/>
										</g>
									</g>
								</g>
								<g>
									<g>
										<g>
											<path style="fill:#71BBD9;" d="M653.902,342.431c-1.253-0.923-2.78-0.846-4.272-0.657
												c-1.487,0.187-2.841,0.411-3.784,1.615c-0.364,0.461,0.449,0.914,0.81,0.455c1.223-1.559,5.22-1.771,6.773-0.632
												C653.909,343.568,654.376,342.781,653.902,342.431z"/>
										</g>
									</g>
								</g>
								<g>
									<g>
										<g>
											<path style="fill:#71BBD9;" d="M653.171,338.765c-1.382-0.809-3.113-0.592-4.651-0.388
												c-1.275,0.169-2.487,0.443-3.398,1.371c-0.416,0.419,0.245,1.064,0.663,0.641c1.368-1.392,5.234-1.823,6.912-0.842
												C653.214,339.85,653.687,339.068,653.171,338.765z"/>
										</g>
									</g>
								</g>
							</g>
						</g>
						<g>
							<g>
								<g>
									<g>
										<g>
											<path style="fill:#DF95DB;" d="M631.052,223.454c-0.082,8.42-0.574,20.662-2.293,34.813
												c-1.218,9.958-3.031,20.868-5.758,32.067c-0.878,3.607-1.838,7.237-2.914,10.876c-1.919,6.51-15.893,12.31-17.285,1.289
												c-0.667-5.211-1.253-9.709-1.697-14.321c-0.796-8.253-1.159-16.875-0.784-30.621c0.269-10.128,0.96-23.038,2.165-40.638
												c0.516-7.515,26.94-27.523,28.367-5.526C630.854,211.393,631.123,215.88,631.052,223.454z"/>
										</g>
									</g>
								</g>
								<path style="fill:#241F36;" d="M630.854,211.393c0,0,0.27,4.487,0.199,12.061c-0.082,8.42-0.574,20.662-2.293,34.813
									c-1.218,9.958-3.031,20.868-5.758,32.067c-8.73,3.347-16.407,1.458-21.895-2.156c-0.796-8.253-1.159-16.875-0.784-30.621
									c0.269-10.128,0.96-23.038,2.165-40.638C603.003,209.404,629.426,189.396,630.854,211.393z"/>
							</g>
							<g>
								<g>
									<g>
										<g>
											<path style="fill:#DF95DB;" d="M662.755,280.118c-0.632,10.468-1.93,17.848-3.334,27.964
												c-1.593,11.474-15.671,5.2-17.519-1.628c-2.259-8.399-4.015-16.739-5.384-24.81c-2.539-14.989-3.698-28.993-4.189-40.422
												c-0.293-7.007-0.34-13.055-0.293-17.759c0.094-6.928,0.387-10.975,0.387-10.975c1.802-22.946,28.144-1.625,28.683,6.217
												c0.503,7.257,0.901,13.746,1.205,19.579C663.351,258.009,663.34,270.397,662.755,280.118z"/>
										</g>
									</g>
								</g>
								<path style="fill:#241F36;" d="M662.755,280.118c-8.122-2.827-17.881-3.935-26.237,1.526
									c-2.539-14.989-3.698-28.993-4.189-40.422c-0.293-7.007-0.34-13.055-0.293-17.759c0.094-6.928,0.387-10.975,0.387-10.975
									c1.802-22.946,28.144-1.625,28.683,6.217c0.503,7.257,0.901,13.746,1.205,19.579
									C663.351,258.009,663.34,270.397,662.755,280.118z"/>
							</g>
						</g>
					</g>
				</g>
				<g>
					<g>
						<g>
							<g>
								<path style="fill:#71BBD9;" d="M621.471,272.182c-22.182,5.662-25.444-6.909-25.444-6.909
									c-2.48-29.392,17.856-38.935,14.678-54.161c6.356-17.97,40.879-10.558,42.581,0.359
									c-3.667,8.715,16.069,25.976,14.085,54.08c0,0-4.475,12.293-24.508,6.475C637.727,270.535,629.858,270.04,621.471,272.182z"
									/>
							</g>
						</g>
					</g>
					<g>
						<g>
							<g>
								<g>
									<g>
										<path style="fill:#DF95DB;" d="M572.433,303.356c-4.93,4.889-11.173,14.149-14.692,23.698
											c-4.606,12.5-7.387,16.197-9.501,20.818c-4.7,10.262,3.804,7.427,6.494,3.551c14.254-20.532,22.36-21.647,27.41-39.558
											C583.331,307.653,577.595,298.236,572.433,303.356z"/>
									</g>
								</g>
							</g>
							<path style="fill:#DF95DB;" d="M532.41,359.922c13.76-6.554,12.745-7.968,15.136-10.128c2.391-2.158,5.429,0.317,6.184,0.742
								c0.755,0.426,0.622,3.78,1.553,6.79c1.258,4.07,4.397,4.951,4.397,4.951s1.016,0.609,0.046,1.022
								c-0.997,0.42-1.285,0.31-2.484,0.113c-1.214-0.201-4.639-2.717-5.86-3.835c-1.223-1.115-12.179,3.521-15.84,3.745
								c-4.673,0.286-4.32-0.023-4.534-0.429c-0.074-0.141-0.03-0.633-0.03-0.633c-2.189,0.174-1.824-1.301-1.824-1.301
								L532.41,359.922z"/>
							<g>
								<g>
									<g>
										<g>
											<path style="fill:#DF95DB;" d="M612.457,271.42c-3.277,5.289-6.215,9.971-8.859,14.09
												c-12.768,19.941-18.619,27.113-22.621,30.063c-1.135,0.843-2.13,1.345-3.078,1.697
												c-9.257,3.441-10.157-2.539-9.327-5.735c0.199-0.76,0.703-2.82,1.545-5.664c2.281-7.722,7.069-21.24,15.108-30.414
												c1.205-1.381,2.493-2.669,3.85-3.816c1.451-10.45,7.736-14.593,13.002-14.571
												C614.563,256.358,613.394,269.911,612.457,271.42z"/>
										</g>
									</g>
								</g>
								<path style="fill:#71BBD9;" d="M612.457,271.42c-3.277,5.289-6.215,9.971-8.859,14.09
									c-8.438-1.733-14.686-6.497-18.373-10.052c1.205-1.381,2.493-2.669,3.85-3.816c1.451-10.45,7.736-14.593,13.002-14.571
									C614.563,256.358,613.394,269.911,612.457,271.42z"/>
							</g>
						</g>
						<g>
							<g>
								<g>
									<g>
										<path style="fill:#DF95DB;" d="M691.799,303.356c4.931,4.889,11.174,14.149,14.693,23.698
											c4.606,12.5,7.385,16.197,9.501,20.818c4.7,10.262-3.804,7.427-6.494,3.551c-14.254-20.532-22.361-21.647-27.41-39.558
											C680.901,307.653,686.636,298.236,691.799,303.356z"/>
									</g>
								</g>
							</g>
							<path style="fill:#DF95DB;" d="M731.822,359.922c-13.761-6.554-12.745-7.968-15.136-10.128
								c-2.391-2.158-5.43,0.317-6.184,0.742c-0.756,0.426-0.623,3.78-1.553,6.79c-1.257,4.07-4.398,4.951-4.398,4.951
								s-1.016,0.609-0.045,1.022c0.997,0.42,1.285,0.31,2.484,0.113c1.213-0.201,4.639-2.717,5.86-3.835
								c1.222-1.115,12.178,3.521,15.84,3.745c4.672,0.286,4.32-0.023,4.534-0.429c0.074-0.141,0.029-0.633,0.029-0.633
								c2.189,0.174,1.824-1.301,1.824-1.301L731.822,359.922z"/>
							<g>
								<g>
									<g>
										<g>
											<path style="fill:#DF95DB;" d="M686.329,317.271c-0.948-0.352-1.943-0.854-3.066-1.686
												c-4.038-2.971-9.959-10.24-22.984-30.612c-2.551-3.991-5.372-8.484-8.508-13.552c-0.936-1.51-2.095-15.062,10.38-14.349
												c5.266-0.023,11.551,4.121,13.002,14.571c1.662,1.404,3.205,3.009,4.633,4.739c7.572,9.14,12.124,22.013,14.324,29.48
												c0.843,2.842,1.346,4.902,1.544,5.674C696.487,314.732,695.598,320.711,686.329,317.271z"/>
										</g>
									</g>
								</g>
								<path style="fill:#71BBD9;" d="M679.787,276.381c-4.914,4.774-11.866,7.291-19.508,8.591
									c-2.551-3.991-5.372-8.484-8.508-13.552c-0.936-1.51-2.095-15.062,10.38-14.349c5.266-0.023,11.551,4.121,13.002,14.571
									C676.815,273.046,678.359,274.651,679.787,276.381z"/>
							</g>
						</g>
					</g>
					<path style="fill:#F5F5F5;" d="M646.139,227.001c-3.548-0.916-8.351-1.787-14.066-1.793
						c-5.765-0.005-10.607,0.872-14.173,1.793c1.144-3.998,2.287-7.996,3.43-11.993c2.015-0.861,5.587-2.084,10.185-2.083
						c4.594,0.001,8.162,1.223,10.177,2.083C643.174,219.005,644.657,223.003,646.139,227.001z"/>
				</g>
				<g>
					<g>
						<g>
							<g>
								<g>
									<g>
										<path style="fill:#DF95DB;" d="M644.249,253.433c0,0,2.465-0.156,3.427,0.651c3.145,2.632,0.194,9.669-1.013,10.787
											c-2.587,2.392-5.461-0.234-5.461-0.234S643.529,259.512,644.249,253.433z"/>
									</g>
								</g>
							</g>
						</g>
						<g>
							<g>
								<g>
									<g>
										<path style="fill:#DF95DB;" d="M619.068,253.433c0,0-2.465-0.156-3.427,0.651c-3.146,2.632-0.195,9.669,1.012,10.787
											c2.587,2.392,5.46-0.234,5.46-0.234S619.787,259.512,619.068,253.433z"/>
									</g>
								</g>
							</g>
						</g>
						<g>
							<g>
								<g>
									<path style="fill:#DF95DB;" d="M643.224,237.432c-2.996-3.184-6.934-5.615-17.661-4.097
										c-6.309,0.893-7.551,8.289-7.652,8.738c-0.97,4.251-0.336,22.586,0.287,24.98c0.624,2.394,9.211,9.95,9.976,10.415
										c0.762,0.467,5.754,0.506,7.249,0.076c1.495-0.426,8.631-8.893,9.452-10.666c0.823-1.773,0.784-13.239,0.77-15.964
										C645.634,248.193,644.694,238.997,643.224,237.432z"/>
								</g>
							</g>
						</g>
					</g>
					<g>
						
							<polyline style="fill:none;stroke:#241F36;stroke-width:0.4425;stroke-linecap:round;stroke-linejoin:round;stroke-miterlimit:10;" points="
							629.653,257.042 629.653,265.922 632.712,265.922 						"/>
						<g>
							<path style="fill:#241F36;" d="M626.191,258.301c0,0.426-0.342,0.768-0.768,0.768c-0.423,0-0.766-0.341-0.766-0.768
								c0-0.423,0.343-0.768,0.766-0.768C625.849,257.533,626.191,257.878,626.191,258.301z"/>
							<path style="fill:#241F36;" d="M636.546,258.301c0,0.426-0.345,0.768-0.771,0.768c-0.424,0-0.766-0.341-0.766-0.768
								c0-0.423,0.342-0.768,0.766-0.768C636.201,257.533,636.546,257.878,636.546,258.301z"/>
						</g>
						
							<path style="fill:none;stroke:#241F36;stroke-width:0.4425;stroke-linecap:round;stroke-linejoin:round;stroke-miterlimit:10;" d="
							M631.721,270.05c0,0,3.446,0.197,4.825-2.363"/>
						<path style="fill:#241F36;" d="M628.447,255.366c0,0.618-1.473,0-3.29,0c-1.817,0-3.29,0.618-3.29,0
							c0-0.618,1.473-2.238,3.29-2.238C626.974,253.128,628.447,254.748,628.447,255.366z"/>
						<path style="fill:#241F36;" d="M639.067,255.366c0,0.618-1.473,0-3.29,0c-1.817,0-3.29,0.618-3.29,0
							c0-0.618,1.473-2.238,3.29-2.238C637.594,253.128,639.067,254.748,639.067,255.366z"/>
					</g>
					
						<path style="fill:none;stroke:#241F36;stroke-width:0.4425;stroke-linecap:round;stroke-linejoin:round;stroke-miterlimit:10;" d="
						M617.991,265.692c0,0-0.354-3.739-0.581-6.044"/>
					
						<path style="fill:none;stroke:#241F36;stroke-width:0.4425;stroke-linecap:round;stroke-linejoin:round;stroke-miterlimit:10;" d="
						M645.141,265.815c0,0,0.547-4.051,0.508-6.166"/>
					
						<path style="fill:#241F36;stroke:#241F36;stroke-width:0.4425;stroke-linecap:round;stroke-linejoin:round;stroke-miterlimit:10;" d="
						M615.137,256.289c0,0,1.632-1.737,2.274,0.372"/>
					
						<path style="fill:#241F36;stroke:#241F36;stroke-width:0.4425;stroke-linecap:round;stroke-linejoin:round;stroke-miterlimit:10;" d="
						M645.625,256.662c0,0,1.338-2.15,2.641,0.352"/>
				</g>
				<g>
					
						<path style="fill:none;stroke:#241F36;stroke-width:0.4425;stroke-linecap:round;stroke-linejoin:round;stroke-miterlimit:10;" d="
						M530.978,362.258c0,0,8.748-2.286,10.114-4.042"/>
					
						<path style="fill:none;stroke:#241F36;stroke-width:0.4425;stroke-linecap:round;stroke-linejoin:round;stroke-miterlimit:10;" d="
						M575.907,315.114c0,0,0.78-1.269,1.463-1.756"/>
					
						<path style="fill:none;stroke:#241F36;stroke-width:0.4425;stroke-linecap:round;stroke-linejoin:round;stroke-miterlimit:10;" d="
						M597.681,258.025c0,0,14.189-5.986,15.419,11.167"/>
					
						<path style="fill:none;stroke:#241F36;stroke-width:0.4425;stroke-linecap:round;stroke-linejoin:round;stroke-miterlimit:10;" d="
						M732.791,362.258c0,0-8.748-2.286-10.113-4.042"/>
					
						<path style="fill:none;stroke:#241F36;stroke-width:0.4425;stroke-linecap:round;stroke-linejoin:round;stroke-miterlimit:10;" d="
						M687.862,315.114c0,0-0.78-1.269-1.463-1.756"/>
					
						<path style="fill:none;stroke:#241F36;stroke-width:0.4425;stroke-linecap:round;stroke-linejoin:round;stroke-miterlimit:10;" d="
						M666.088,258.025c0,0-14.188-5.986-15.418,11.167"/>
				</g>
			</g>
			<path style="fill:#D43439;" d="M617.9,254.034c0,0-0.547-8.221,1.677-10.445c2.224-2.224,2.891-1.354,2.219-4.255
				c-0.672-2.901,10.354,6.286,17.414,5.223c7.06-1.064,4.836,0.29,4.836,0.29c0,1.644,1.096,9.188,1.096,9.188l2.534,0.05
				c0,0,10.477-30.482-23.747-23.358c-2.113,0.44-2.902,3.192-2.902,3.192s-4.932,0.58-6.092,3.772
				c-1.161,3.191,0.928,16.345,0.928,16.345H617.9z"/>
		</g>
		<g>
			<ellipse style="fill:#241F36;" cx="130.78" cy="364.386" rx="101.83" ry="7.854"/>
			<g>
				<g>
					<g>
						<polygon style="fill:#5F3DA5;" points="121.152,351.452 123.246,325.066 83.13,325.113 81.658,351.452 						"/>
						<g>
							
								<polygon style="fill:none;stroke:#241F36;stroke-width:0.4425;stroke-linecap:round;stroke-linejoin:round;stroke-miterlimit:10;" points="
								91.214,348.571 85.511,348.571 86.88,327.532 92.582,327.532 							"/>
							
								<polygon style="fill:none;stroke:#241F36;stroke-width:0.4425;stroke-linecap:round;stroke-linejoin:round;stroke-miterlimit:10;" points="
								100.505,348.571 94.803,348.571 96.171,327.532 101.873,327.532 							"/>
							
								<polygon style="fill:none;stroke:#241F36;stroke-width:0.4425;stroke-linecap:round;stroke-linejoin:round;stroke-miterlimit:10;" points="
								109.797,348.571 104.094,348.571 105.463,327.532 111.165,327.532 							"/>
							
								<polygon style="fill:none;stroke:#241F36;stroke-width:0.4425;stroke-linecap:round;stroke-linejoin:round;stroke-miterlimit:10;" points="
								119.088,348.571 113.386,348.571 114.754,327.532 120.456,327.532 							"/>
						</g>
					</g>
					<g>
						<polygon style="fill:#5F3DA5;" points="142.226,362.536 140.132,336.151 180.248,336.198 181.72,362.536 						"/>
						<g>
							
								<polygon style="fill:none;stroke:#241F36;stroke-width:0.4425;stroke-linecap:round;stroke-linejoin:round;stroke-miterlimit:10;" points="
								172.164,359.656 177.867,359.656 176.498,338.617 170.796,338.617 							"/>
							
								<polygon style="fill:none;stroke:#241F36;stroke-width:0.4425;stroke-linecap:round;stroke-linejoin:round;stroke-miterlimit:10;" points="
								162.873,359.656 168.575,359.656 167.207,338.617 161.505,338.617 							"/>
							
								<polygon style="fill:none;stroke:#241F36;stroke-width:0.4425;stroke-linecap:round;stroke-linejoin:round;stroke-miterlimit:10;" points="
								153.581,359.656 159.284,359.656 157.915,338.617 152.213,338.617 							"/>
							
								<polygon style="fill:none;stroke:#241F36;stroke-width:0.4425;stroke-linecap:round;stroke-linejoin:round;stroke-miterlimit:10;" points="
								144.29,359.656 149.992,359.656 148.624,338.617 142.922,338.617 							"/>
						</g>
					</g>
					<g>
						<rect x="124.125" y="331.036" style="fill:#DF95DB;" width="14.718" height="32.126"/>
						<g>
							
								<rect x="126.005" y="333.723" style="fill:none;stroke:#241F36;stroke-width:0.4425;stroke-linecap:round;stroke-linejoin:round;stroke-miterlimit:10;" width="11.122" height="27.64"/>
							<g>
								
									<line style="fill:none;stroke:#241F36;stroke-width:0.4425;stroke-linecap:round;stroke-linejoin:round;stroke-miterlimit:10;" x1="126.005" y1="338.553" x2="137.126" y2="338.553"/>
								
									<line style="fill:none;stroke:#241F36;stroke-width:0.4425;stroke-linecap:round;stroke-linejoin:round;stroke-miterlimit:10;" x1="126.005" y1="343.048" x2="137.126" y2="343.048"/>
								
									<line style="fill:none;stroke:#241F36;stroke-width:0.4425;stroke-linecap:round;stroke-linejoin:round;stroke-miterlimit:10;" x1="126.005" y1="347.543" x2="137.126" y2="347.543"/>
								
									<line style="fill:none;stroke:#241F36;stroke-width:0.4425;stroke-linecap:round;stroke-linejoin:round;stroke-miterlimit:10;" x1="126.005" y1="352.038" x2="137.126" y2="352.038"/>
								
									<line style="fill:none;stroke:#241F36;stroke-width:0.4425;stroke-linecap:round;stroke-linejoin:round;stroke-miterlimit:10;" x1="126.005" y1="356.533" x2="137.126" y2="356.533"/>
							</g>
						</g>
					</g>
				</g>
				<g>
					<g>
						<g>
							<g>
								<g>
									<path style="fill:#71BBD9;" d="M102.729,295.182c0,0-0.949,8.18,0.667,11.583c1.618,3.4,4.344,6.604,7.874,15.964
										c0.23,0.612,7.507,2.105,7.356,0.134c-1.052-13.728,5.809-12.63-0.911-27.329
										C116.414,292.684,104.127,292.008,102.729,295.182z"/>
								</g>
							</g>
						</g>
						<g>
							<g>
								<g>
									<g>
										<path style="fill:#241F36;" d="M119.554,324.866c0,0-0.543,7.071-0.418,11.278c0.126,4.208,1.077,7.349-1.048,11.006
											c-1.063,1.824-12.438,2.138-13.753-0.518c-1.926-3.891,4.301-11.523,5.108-14.636c0.806-3.116,1.486-7.447,2.391-7.79
											C112.74,323.867,118.088,322.72,119.554,324.866z"/>
									</g>
								</g>
							</g>
							<g>
								<g>
									<g>
										<path style="fill:#E8E8E8;" d="M119.519,342.303c0,0-1.211,4.337-5.387,4.165c-4.176-0.169-9.692,1.357-9.682-4.165
											c0,0-0.602,1.98-0.479,2.777c0.124,0.793,1.296,3.81,4.739,3.492c3.444-0.317,8.793-0.745,9.378-1.424
											C118.676,346.468,119.519,342.303,119.519,342.303z"/>
									</g>
								</g>
							</g>
							<g>
								<g>
									<g>
										<path style="fill:#241F36;" d="M119.519,342.303c0,0,0.475,2.635-0.917,5.865c-1.393,3.228-12.237,2.042-13.922,0.981
											c-1.685-1.065-1.502-3.409-0.373-6.265c0,0,0.373,4.86,2.211,3.405c0,0,3.804-5.993,7.615,0.18
											C115.012,347.894,118.785,347.716,119.519,342.303z"/>
									</g>
								</g>
							</g>
							<g>
								<g>
									<g>
										<path style="fill:#241F36;" d="M116.055,336.085c0,0,0.825-8.902,2.638-11.219c1.814-2.316,0.989-4.163-2.967-4.674
											c-3.958-0.509-5-0.269-5.167,2.167c-0.097,1.449,1.403,4.896,0.957,8.203c-0.446,3.306-0.901,4.868-0.901,4.868
											L116.055,336.085z"/>
									</g>
								</g>
							</g>
							<g>
								<g>
									<g>
										<path style="fill:#F5F5F5;" d="M119.297,338.77c0,0-1.281-1.223-2.6-1.904c-1.318-0.677-5.714-1.218-7.108-0.781
											c-2.161,0.676-3.048,1.655-3.048,1.655l0.843-1.517c0,0,1.556-2.501,5.101-2.5c2.675,0.003,5.824,1.221,6.703,3.643
											L119.297,338.77z"/>
									</g>
								</g>
							</g>
							<g>
								<g>
									<g>
										<path style="fill:#F5F5F5;" d="M110.191,330.993c1.174-1.04,2.607-0.951,4.005-0.74c1.395,0.212,2.664,0.459,3.548,1.815
											c0.341,0.521-0.421,1.031-0.759,0.512c-1.146-1.753-4.894-1.99-6.351-0.709
											C110.183,332.272,109.745,331.385,110.191,330.993z"/>
									</g>
								</g>
							</g>
							<g>
								<g>
									<g>
										<path style="fill:#F5F5F5;" d="M110.877,326.868c1.295-0.911,2.919-0.67,4.36-0.438c1.195,0.192,2.331,0.496,3.185,1.543
											c0.39,0.47-0.23,1.195-0.621,0.719c-1.283-1.565-4.907-2.049-6.481-0.943
											C110.835,328.089,110.393,327.206,110.877,326.868z"/>
									</g>
								</g>
							</g>
						</g>
					</g>
					<g>
						<g>
							<g>
								<g>
									<g>
										<path style="fill:#71BBD9;" d="M160.097,298.482c0,0-0.292,8.548-1.9,12.926c-1.61,4.376-3.069,10.477-6.576,22.515
											c-0.229,0.792-7.503,2.696-7.356,0.159c1.019-17.669-5.839-16.272,0.847-35.178
											C146.406,295.238,158.692,294.392,160.097,298.482z"/>
									</g>
								</g>
							</g>
							<g>
								<g>
									<g>
										<g>
											<path style="fill:#241F36;" d="M143.733,336.987c0,0,0.58,6.284,0.446,10.021c-0.133,3.74-1.149,6.53,1.118,9.78
												c1.134,1.62,13.269,1.903,14.671-0.461c2.055-3.459-4.588-10.238-5.448-13.004c-0.86-2.768-1.586-6.617-2.551-6.924
												C151.002,336.1,145.296,335.081,143.733,336.987z"/>
										</g>
									</g>
								</g>
								<g>
									<g>
										<g>
											<path style="fill:#E8E8E8;" d="M143.771,352.482c0,0,1.291,3.85,5.747,3.699c4.454-0.153,10.338,1.208,10.327-3.699
												c0,0,0.641,1.758,0.511,2.466c-0.131,0.706-1.383,3.386-5.056,3.104c-3.673-0.284-9.378-0.662-10.004-1.265
												C144.67,356.181,143.771,352.482,143.771,352.482z"/>
										</g>
									</g>
								</g>
								<g>
									<g>
										<g>
											<path style="fill:#241F36;" d="M143.771,352.482c0,0-0.507,2.339,0.978,5.21c1.487,2.867,13.053,1.812,14.852,0.869
												c1.798-0.946,1.603-3.028,0.398-5.564c0,0-0.398,4.316-2.358,3.022c0,0-4.058-5.324-8.122,0.162
												C148.578,357.448,144.553,357.291,143.771,352.482z"/>
										</g>
									</g>
								</g>
								<g>
									<g>
										<g>
											<path style="fill:#241F36;" d="M147.465,346.954c0,0-0.879-7.911-2.814-9.968c-1.936-2.057-1.056-3.698,3.165-4.151
												c4.221-0.455,5.334-0.239,5.511,1.924c0.103,1.289-1.497,4.351-1.022,7.289c0.475,2.936,0.962,4.323,0.962,4.323
												L147.465,346.954z"/>
										</g>
									</g>
								</g>
								<g>
									<g>
										<g>
											<path style="fill:#F5F5F5;" d="M144.008,349.344c0,0,1.366-1.091,2.773-1.694c1.406-0.602,6.095-1.083,7.581-0.695
												c2.306,0.601,3.251,1.472,3.251,1.472l-0.898-1.351c0,0-1.659-2.221-5.441-2.218c-2.853,0.002-6.213,1.085-7.15,3.238
												L144.008,349.344z"/>
										</g>
									</g>
								</g>
								<g>
									<g>
										<g>
											<path style="fill:#F5F5F5;" d="M153.72,342.431c-1.251-0.923-2.779-0.846-4.27-0.659
												c-1.488,0.187-2.841,0.412-3.784,1.617c-0.364,0.461,0.449,0.914,0.809,0.455c1.223-1.559,5.221-1.771,6.774-0.632
												C153.728,343.568,154.196,342.781,153.72,342.431z"/>
										</g>
									</g>
								</g>
								<g>
									<g>
										<g>
											<path style="fill:#F5F5F5;" d="M152.99,338.765c-1.382-0.809-3.114-0.592-4.651-0.388
												c-1.275,0.169-2.487,0.443-3.397,1.371c-0.417,0.419,0.244,1.064,0.662,0.641c1.368-1.392,5.233-1.823,6.912-0.842
												C153.034,339.85,153.506,339.068,152.99,338.765z"/>
										</g>
									</g>
								</g>
							</g>
						</g>
						<g>
							<g>
								<g>
									<g>
										<g>
											<path style="fill:#F5F5F5;" d="M130.871,223.454c-0.081,8.42-0.573,20.662-2.292,34.813
												c-1.218,9.958-3.031,20.868-5.757,32.067c-0.878,3.607-1.838,7.237-2.915,10.876c-1.918,6.509-15.891,12.31-17.285,1.289
												c-0.666-5.212-1.251-9.709-1.696-14.323c-0.796-8.251-1.158-16.874-0.784-30.621c0.268-10.126,0.96-23.036,2.164-40.635
												c0.515-7.515,26.94-27.524,28.368-5.528C130.673,211.392,130.942,215.88,130.871,223.454z"/>
										</g>
									</g>
								</g>
								<path style="fill:#241F36;" d="M130.673,211.392c0,0,0.269,4.488,0.198,12.062c-0.081,8.42-0.573,20.662-2.292,34.813
									c-1.218,9.958-3.031,20.868-5.757,32.067c-8.731,3.347-16.408,1.458-21.896-2.158c-0.796-8.251-1.158-16.874-0.784-30.621
									c0.268-10.126,0.96-23.036,2.164-40.635C102.821,209.405,129.245,189.395,130.673,211.392z"/>
							</g>
							<g>
								<g>
									<g>
										<g>
											<path style="fill:#F5F5F5;" d="M162.574,280.117c-0.632,10.469-1.931,17.85-3.335,27.966
												c-1.591,11.474-15.67,5.2-17.519-1.628c-2.258-8.399-4.014-16.741-5.383-24.81c-2.54-14.989-3.699-28.993-4.19-40.422
												c-0.292-7.009-0.339-13.057-0.292-17.759c0.094-6.927,0.386-10.975,0.386-10.975c1.802-22.946,28.145-1.624,28.683,6.217
												c0.503,7.257,0.901,13.746,1.206,19.579C163.171,258.009,163.159,270.397,162.574,280.117z"/>
										</g>
									</g>
								</g>
								<path style="fill:#241F36;" d="M162.574,280.117c-8.121-2.828-17.882-3.934-26.237,1.528
									c-2.54-14.989-3.699-28.993-4.19-40.422c-0.292-7.009-0.339-13.057-0.292-17.759c0.094-6.927,0.386-10.975,0.386-10.975
									c1.802-22.946,28.145-1.624,28.683,6.217c0.503,7.257,0.901,13.746,1.206,19.579
									C163.171,258.009,163.159,270.397,162.574,280.117z"/>
							</g>
						</g>
					</g>
				</g>
				<g>
					<g>
						<g>
							<g>
								<path style="fill:#5F3DA5;" d="M121.29,272.182c-22.182,5.661-25.444-6.909-25.444-6.909
									c-2.481-29.391,17.856-38.935,14.676-54.162c6.356-17.969,40.879-10.557,42.582,0.36
									c-3.668,8.715,16.068,25.977,14.085,54.08c0,0-4.475,12.292-24.508,6.475C137.546,270.533,129.677,270.04,121.29,272.182z"
									/>
							</g>
						</g>
					</g>
					<g>
						<g>
							<g>
								<g>
									<g>
										<path style="fill:#F5F5F5;" d="M72.252,303.356c-4.93,4.889-11.174,14.149-14.692,23.698
											c-4.608,12.5-7.387,16.195-9.502,20.818c-4.699,10.262,3.805,7.427,6.495,3.551
											c14.254-20.532,18.345-21.195,27.859-37.188C85.845,308.466,77.415,298.236,72.252,303.356z"/>
									</g>
								</g>
							</g>
							<path style="fill:#F5F5F5;" d="M32.228,359.922c13.761-6.554,12.745-7.968,15.136-10.128
								c2.391-2.158,5.429,0.317,6.184,0.742c0.755,0.426,0.622,3.778,1.553,6.788c1.257,4.071,4.397,4.952,4.397,4.952
								s1.017,0.609,0.045,1.022c-0.997,0.42-1.285,0.31-2.484,0.113c-1.212-0.201-4.639-2.717-5.86-3.835
								c-1.223-1.115-12.178,3.521-15.84,3.745c-4.672,0.286-4.32-0.023-4.533-0.431c-0.075-0.139-0.029-0.633-0.029-0.633
								c-2.188,0.174-1.824-1.299-1.824-1.299L32.228,359.922z"/>
							<g>
								<g>
									<g>
										<g>
											<path style="fill:#F5F5F5;" d="M108.328,271.008c-3.276,5.289-2.265,10.382-4.911,14.5
												c-12.767,19.943-18.618,27.115-22.622,30.065c-1.135,0.843-2.129,1.345-3.077,1.697
												c-9.258,3.441-10.158-2.539-9.327-5.735c0.199-0.76,0.701-2.82,1.544-5.664c2.282-7.722,7.068-21.24,15.109-30.415
												c1.204-1.38,4.079-1.614,5.437-2.761c1.451-10.45,5.326-11.604,10.593-11.582
												C113.561,260.4,109.264,269.499,108.328,271.008z"/>
										</g>
									</g>
								</g>
								<path style="fill:#5F3DA5;" d="M112.276,271.42c-3.276,5.289-6.214,9.971-8.859,14.089
									c-8.438-1.732-14.686-6.495-18.372-10.052c0.301-0.345,0.607-0.684,0.919-1.017c1.714-1.831,3-4.045,3.698-6.453
									c2.252-7.772,7.632-10.935,12.235-10.915C114.383,256.358,113.213,269.911,112.276,271.42z"/>
							</g>
						</g>
						<g>
							<g>
								<g>
									<g>
										<path style="fill:#F5F5F5;" d="M193.086,303.117c4.93,4.889,9.706,14.388,13.225,23.937
											c4.607,12.5,7.386,16.195,9.502,20.818c4.699,10.262-3.805,7.427-6.495,3.551c-14.254-20.532-18.791-18.784-26.235-35.839
											C180.516,309.705,187.922,297.997,193.086,303.117z"/>
									</g>
								</g>
							</g>
							<path style="fill:#F5F5F5;" d="M231.641,359.922c-13.76-6.554-12.744-7.968-15.136-10.128
								c-2.392-2.158-5.429,0.317-6.184,0.742c-0.754,0.426-0.621,3.778-1.552,6.788c-1.257,4.071-4.398,4.952-4.398,4.952
								s-1.017,0.609-0.046,1.022c0.997,0.42,1.284,0.31,2.485,0.113c1.212-0.201,4.638-2.717,5.86-3.835
								c1.222-1.115,12.178,3.521,15.84,3.745c4.672,0.286,4.32-0.023,4.533-0.431c0.075-0.139,0.029-0.633,0.029-0.633
								c2.188,0.174,1.824-1.299,1.824-1.299L231.641,359.922z"/>
							<g>
								<g>
									<g>
										<g>
											<path style="fill:#F5F5F5;" d="M186.148,317.271c-0.949-0.352-1.943-0.854-3.066-1.686
												c-4.038-2.971-9.958-10.24-22.984-30.612c-2.552-3.991-1.376-8.628-4.513-13.696c-0.936-1.51-7.964-10.837,4.512-10.124
												c5.266-0.023,11.621,1.093,13.072,11.543c1.662,1.404,5.009,1.956,6.437,3.684c7.571,9.141,12.123,22.013,14.323,29.481
												c0.844,2.842,1.346,4.902,1.546,5.674C196.306,314.732,195.416,320.711,186.148,317.271z"/>
										</g>
									</g>
								</g>
								<path style="fill:#5F3DA5;" d="M179.606,276.38c-4.915,4.775-11.867,7.291-19.508,8.593
									c-2.552-3.991-5.371-8.484-8.508-13.552c-0.936-1.51-2.095-15.062,10.381-14.349c4.485-0.019,9.708,2.984,12.055,10.331
									c0.891,2.788,2.362,5.356,4.326,7.526C178.78,275.401,179.198,275.885,179.606,276.38z"/>
							</g>
						</g>
					</g>
					<path style="fill:#F5F5F5;" d="M145.959,227.001c-4.062-0.574-8.761-0.985-13.98-0.992c-5.334-0.007-10.128,0.409-14.259,0.992
						c1.143-3.997,2.286-7.995,3.429-11.993c2.141-0.82,5.571-1.838,9.885-1.883c4.619-0.048,8.277,1.04,10.478,1.883
						C142.994,219.006,144.476,223.003,145.959,227.001z"/>
				</g>
				<g>
					<g>
						<g>
							<g>
								<g>
									<g>
										<path style="fill:#F5F5F5;" d="M144.067,253.433c0,0,2.465-0.156,3.427,0.651c3.146,2.632,0.194,9.669-1.012,10.787
											c-2.588,2.392-5.461-0.234-5.461-0.234S143.347,259.512,144.067,253.433z"/>
									</g>
								</g>
							</g>
						</g>
						<g>
							<g>
								<g>
									<g>
										<path style="fill:#F5F5F5;" d="M118.886,253.433c0,0-2.465-0.156-3.427,0.651c-3.145,2.632-0.193,9.669,1.012,10.787
											c2.588,2.392,5.461-0.234,5.461-0.234S119.607,259.512,118.886,253.433z"/>
									</g>
								</g>
							</g>
						</g>
						<g>
							<g>
								<g>
									<path style="fill:#F5F5F5;" d="M143.042,237.432c-2.995-3.183-6.933-5.615-17.66-4.098
										c-6.308,0.895-7.551,8.29-7.652,8.739c-0.97,4.251-0.336,22.586,0.287,24.98c0.624,2.394,9.209,9.95,9.975,10.415
										c0.762,0.467,5.755,0.506,7.249,0.076c1.494-0.426,8.63-8.893,9.452-10.667c0.823-1.771,0.784-13.238,0.771-15.962
										C145.453,248.193,144.513,238.997,143.042,237.432z"/>
								</g>
							</g>
						</g>
					</g>
					<g>
						
							<polyline style="fill:none;stroke:#241F36;stroke-width:0.4425;stroke-linecap:round;stroke-linejoin:round;stroke-miterlimit:10;" points="
							130.234,256.18 130.234,265.06 133.293,265.06 						"/>
						<g>
							<path style="fill:#241F36;" d="M126.772,257.439c0,0.426-0.342,0.768-0.769,0.768c-0.423,0-0.766-0.342-0.766-0.768
								c0-0.423,0.343-0.768,0.766-0.768C126.43,256.671,126.772,257.016,126.772,257.439z"/>
							<path style="fill:#241F36;" d="M137.126,257.439c0,0.426-0.345,0.768-0.771,0.768c-0.424,0-0.766-0.342-0.766-0.768
								c0-0.423,0.342-0.768,0.766-0.768C136.782,256.671,137.126,257.016,137.126,257.439z"/>
						</g>
						
							<path style="fill:none;stroke:#241F36;stroke-width:0.4425;stroke-linecap:round;stroke-linejoin:round;stroke-miterlimit:10;" d="
							M132.302,269.188c0,0,3.446,0.197,4.824-2.363"/>
						<path style="fill:#241F36;" d="M129.027,254.504c0,0.618-1.473,0-3.29,0s-3.29,0.618-3.29,0c0-0.618,1.473-2.238,3.29-2.238
							S129.027,253.886,129.027,254.504z"/>
						<path style="fill:#241F36;" d="M139.648,254.504c0,0.618-1.473,0-3.29,0s-3.29,0.618-3.29,0c0-0.618,1.473-2.238,3.29-2.238
							S139.648,253.886,139.648,254.504z"/>
					</g>
				</g>
				<g>
					
						<path style="fill:none;stroke:#241F36;stroke-width:0.4425;stroke-linecap:round;stroke-linejoin:round;stroke-miterlimit:10;" d="
						M30.797,362.256c0,0,8.748-2.285,10.113-4.041"/>
					
						<path style="fill:none;stroke:#241F36;stroke-width:0.4425;stroke-linecap:round;stroke-linejoin:round;stroke-miterlimit:10;" d="
						M75.726,315.113c0,0,0.78-1.268,1.463-1.755"/>
					
						<path style="fill:none;stroke:#241F36;stroke-width:0.4425;stroke-linecap:round;stroke-linejoin:round;stroke-miterlimit:10;" d="
						M97.5,258.025c0,0,14.188-5.986,15.419,11.167"/>
					
						<path style="fill:none;stroke:#241F36;stroke-width:0.4425;stroke-linecap:round;stroke-linejoin:round;stroke-miterlimit:10;" d="
						M232.61,362.256c0,0-8.747-2.285-10.114-4.041"/>
					
						<path style="fill:none;stroke:#241F36;stroke-width:0.4425;stroke-linecap:round;stroke-linejoin:round;stroke-miterlimit:10;" d="
						M187.681,315.113c0,0-0.78-1.268-1.463-1.755"/>
					
						<path style="fill:none;stroke:#241F36;stroke-width:0.4425;stroke-linecap:round;stroke-linejoin:round;stroke-miterlimit:10;" d="
						M165.907,258.025c0,0-14.189-5.986-15.419,11.167"/>
				</g>
			</g>
			<g>
				<path style="fill:#241F36;" d="M116.835,241.901c0,0-0.721,20.374,0,20.451c0.721,0.077,0.885-0.774,0.885-0.774
					s-0.663-11.509,0-13.057c0.663-1.547,3.467-1.794,3.467-1.794v-3.816L116.835,241.901z"/>
				<path style="fill:#241F36;" d="M146.025,241.901c0,0,0.721,20.374,0,20.451c-0.721,0.077-0.885-0.774-0.885-0.774
					s0.663-11.509,0-13.057c-0.663-1.547-3.467-1.794-3.467-1.794v-3.816L146.025,241.901z"/>
			</g>
			<g>
				<path style="fill:#71BBD9;" d="M117.509,245.055c2.784,2.598,6.2,4.369,9.795,5.077c0.81,0.16,1.683,0.258,2.426-0.132
					c0.743-0.389,1.255-1.438,0.859-2.232c3.548,1.416,7.219,1.625,10.97,1.156c0.582-0.073,1.174-0.173,1.693-0.471
					c0.519-0.298,0.96-0.829,1.035-1.467c0.075-0.638-0.311-1.347-0.89-1.441c2.791-1.602,4.857-4.398,5.882-7.67
					c0.22-0.703,0.389-1.444,0.33-2.185c-0.059-0.741-0.379-1.488-0.956-1.877c-0.576-0.39-1.419-0.323-1.844,0.256
					c0.615-1.27-0.342-3.123-1.537-3.71c-1.196-0.587-2.776,0.148-3.226,1.499c-0.584-1.234-1.886-2.102-3.134-1.867
					c-1.248,0.235-2.341,1.028-3.392,1.802c-2.074-1.69-5.177-2.232-7.724-1.768c-2.547,0.464-4.9,2.104-6.367,4.438
					c-2.327-0.477-4.902,0.889-5.649,3.357C115.033,240.289,115.705,243.371,117.509,245.055z"/>
				
					<path style="fill:none;stroke:#241F36;stroke-width:0.4425;stroke-linecap:round;stroke-linejoin:round;stroke-miterlimit:10;" d="
					M129.084,241.423c0.737-0.603,1.545-1.157,2.467-1.391c0.923-0.235,1.983-0.102,2.687,0.539c0.703,0.641,0.901,1.844,0.28,2.566
					c1.286-0.222,2.544,1.105,2.534,2.41"/>
			</g>
		</g>
	</g>
</g>
</svg>
