<?xml version="1.0" encoding="UTF-8" standalone="no"?>
<!-- Created with Inkscape (http://www.inkscape.org/) -->

<svg
   width="69.350601mm"
   height="69.350914mm"
   viewBox="0 0 69.350601 69.350914"
   version="1.1"
   id="svg1"
   xmlns="http://www.w3.org/2000/svg"
   xmlns:svg="http://www.w3.org/2000/svg">
  <defs
     id="defs1" />
  <g
     id="layer1"
     transform="translate(-69.850009,-113.77083)">
    <path
       id="path200"
       d="m 104.52527,114.28029 c 18.86884,0 34.16545,15.29659 34.16545,34.16572 0,18.86927 -15.29661,34.16589 -34.16545,34.16589 -18.86901,0 -34.165614,-15.29662 -34.165614,-34.16589 0,-18.86913 15.296604,-34.16572 34.165614,-34.16572"
       style="fill:#ff9914;fill-opacity:1;fill-rule:nonzero;stroke:none;stroke-width:0.347446" />
    <path
       id="path201"
       d="m 92.227435,119.61168 1.140001,-0.46058 3.051881,4.15071 -1.035473,0.41839 -0.590903,-0.81519 -0.988519,0.39927 0.146403,0.99483 -1.0408,0.42048 z m 2.060893,2.51143 -0.987884,-1.49663 0.313267,1.76911 z m 4.740098,-3.24743 -1.125502,0.23922 0.789305,3.71359 -1.075796,0.2287 -0.789411,-3.71358 -1.131111,0.24038 -0.248391,-1.169 3.332409,-0.70838 z m 1.178704,3.61231 -0.694693,-4.94309 1.089203,-0.15311 0.52839,3.75959 1.79849,-0.2528 0.16641,1.18361 z m 6.18648,-1.49878 v 1.19518 h -2.85407 v -4.9917 h 2.80338 v 1.19521 h -1.70349 v 0.70308 h 1.45531 v 1.11083 h -1.45531 v 0.7874 z m 4.15661,-2.08241 -1.13951,-0.16009 -0.52839,3.75959 -1.0891,-0.15311 0.52839,-3.75959 -1.14518,-0.1609 0.1664,-1.1836 3.37369,0.4742 z m 3.07961,1.2404 c 0,0 -0.0249,-0.0309 -0.0744,-0.0927 -0.0496,-0.0619 -0.11769,-0.13469 -0.20419,-0.21851 -0.0867,-0.0839 -0.18373,-0.1645 -0.2915,-0.2419 -0.1077,-0.0773 -0.21971,-0.13159 -0.33592,-0.16277 -0.0908,-0.0243 -0.17011,-0.0261 -0.23798,-0.005 -0.0678,0.0206 -0.11331,0.074 -0.13631,0.15988 -0.0218,0.0816 -0.0103,0.1549 0.0344,0.22031 0.0448,0.0654 0.11528,0.13279 0.21159,0.20228 0.0961,0.0694 0.21089,0.15353 0.344,0.25231 0.21551,0.1548 0.39461,0.31439 0.53742,0.47879 0.14287,0.16443 0.23689,0.35101 0.28218,0.55961 0.0453,0.2087 0.0273,0.46471 -0.0539,0.768 -0.0776,0.2897 -0.18467,0.5219 -0.32099,0.69652 -0.13621,0.17449 -0.291,0.3017 -0.46418,0.3815 -0.17322,0.0796 -0.35401,0.1222 -0.54233,0.12749 -0.18827,0.005 -0.3732,-0.0162 -0.55488,-0.0649 -0.18521,-0.0496 -0.37229,-0.1252 -0.56109,-0.2267 -0.18892,-0.1017 -0.3665,-0.2196 -0.53291,-0.3539 -0.16641,-0.13441 -0.3126,-0.27909 -0.4385,-0.4342 l 0.76891,-1.03858 c 0,0 0.029,0.0369 0.0871,0.1107 0.0581,0.0738 0.1379,0.16069 0.23957,0.26067 0.10171,0.10012 0.21883,0.19703 0.3514,0.29072 0.13251,0.0938 0.27323,0.16059 0.4221,0.20049 0.11631,0.0311 0.20232,0.0336 0.25802,0.007 0.0557,-0.0263 0.0921,-0.0711 0.10898,-0.13447 0.0255,-0.0951 0.005,-0.17932 -0.0607,-0.25281 -0.066,-0.0735 -0.15702,-0.1513 -0.2733,-0.23339 -0.1162,-0.0821 -0.24391,-0.17572 -0.38312,-0.28092 -0.19977,-0.1555 -0.35609,-0.3127 -0.4693,-0.47159 -0.1132,-0.15889 -0.1821,-0.3301 -0.20679,-0.51389 -0.0247,-0.1838 -0.006,-0.39332 0.0575,-0.62873 0.0958,-0.35768 0.2431,-0.63849 0.44181,-0.84239 0.19869,-0.20398 0.42457,-0.33871 0.67769,-0.40439 0.25308,-0.0656 0.5067,-0.0643 0.76108,0.004 0.18881,0.0506 0.36382,0.12788 0.52483,0.2316 0.16097,0.10378 0.3078,0.2171 0.4403,0.34 0.13258,0.12277 0.2472,0.23598 0.344,0.33959 z m 0.16619,3.58331 2.03031,-4.56022 1.00478,0.44739 -0.7722,1.73422 1.88521,-1.23871 1.13362,0.50479 -2.2388,1.45041 0.30127,3.15101 -1.15429,-0.51389 -0.1604,-2.08012 -0.43851,0.23569 -0.58617,1.31671 z m 3.56951,1.71407 2.41999,-4.3658 0.96202,0.53322 -2.42012,4.36591 z m 3.58511,2.44482 3.20858,-3.8239 0.84261,0.707 -1.22029,1.45419 2.1536,-0.67098 0.95049,0.79759 -2.55182,0.77721 -0.57887,3.11199 -0.96803,-0.8122 0.41921,-2.04382 -0.48648,0.1058 -0.9265,1.10412 z m 2.87707,2.7021 3.65073,-3.40441 0.75007,0.80441 -2.77657,2.58921 1.23867,1.32838 -0.87408,0.8151 z m 3.04501,3.96748 c -0.17858,-0.26497 -0.27778,-0.5292 -0.29718,-0.79279 -0.0195,-0.2636 0.0256,-0.51961 0.1349,-0.768 0.1095,-0.2485 0.26857,-0.48398 0.47748,-0.70658 0.20892,-0.22253 0.4493,-0.42541 0.7214,-0.60893 l 2.12749,-1.43499 0.615,0.91182 -2.12749,1.435 c -0.136,0.0917 -0.2588,0.19039 -0.36841,0.29608 -0.10968,0.10569 -0.19727,0.21481 -0.26289,0.3271 -0.0655,0.11222 -0.10181,0.22401 -0.1088,0.33531 -0.007,0.1112 0.0255,0.21989 0.0969,0.32579 0.0736,0.10922 0.1638,0.18211 0.27058,0.2189 0.10682,0.0368 0.225,0.0444 0.35472,0.0228 0.1295,-0.0216 0.26381,-0.0635 0.4028,-0.12548 0.1391,-0.062 0.27478,-0.13762 0.40679,-0.2267 l 2.1275,-1.43499 0.61499,0.91179 -2.12739,1.43499 c -0.28758,0.19399 -0.57608,0.34442 -0.86589,0.45142 -0.2897,0.10689 -0.56882,0.16249 -0.83732,0.16668 -0.2685,0.004 -0.51788,-0.0532 -0.7481,-0.17229 -0.23019,-0.11921 -0.43247,-0.30819 -0.60709,-0.56692 m 3.856,4.68581 c -0.27189,0.12679 -0.52028,0.17092 -0.7451,0.13261 -0.22469,-0.0384 -0.42348,-0.13751 -0.59641,-0.29761 -0.1729,-0.15991 -0.31489,-0.3593 -0.42619,-0.59781 l -0.83189,-1.78407 4.52399,-2.10961 0.9821,2.10608 c 0.0795,0.1705 0.092,0.3441 0.0373,0.52102 -0.0546,0.17688 -0.15547,0.34018 -0.3029,0.4898 -0.14749,0.14968 -0.31679,0.2691 -0.50789,0.35821 -0.20821,0.0971 -0.43018,0.14767 -0.66608,0.15187 -0.2359,0.004 -0.4433,-0.0578 -0.62202,-0.18599 0.0204,0.24349 -0.0367,0.47029 -0.17138,0.68041 -0.13472,0.21011 -0.3593,0.38851 -0.67352,0.53509 z m -0.21721,-1.13111 c 0.0764,-0.0356 0.13822,-0.0779 0.18511,-0.12679 0.0471,-0.0489 0.0788,-0.1 0.0954,-0.15328 0.0165,-0.0533 0.0127,-0.10562 -0.0111,-0.15671 l -0.38379,-0.8231 -0.75822,0.35359 0.3671,0.7873 c 0.0255,0.0545 0.0633,0.097 0.1137,0.12742 0.0504,0.0305 0.10922,0.0456 0.17632,0.0454 0.0672,-2.1e-4 0.13888,-0.0181 0.21547,-0.0538 z m 1.5487,-2.03539 -0.69448,0.32392 0.31711,0.67988 c 0.0206,0.0443 0.05,0.0825 0.0881,0.1144 0.0383,0.0321 0.0892,0.0497 0.15289,0.0532 0.0637,0.004 0.14221,-0.0164 0.23569,-0.06 0.0849,-0.0397 0.14662,-0.082 0.18521,-0.12689 0.0385,-0.0449 0.0611,-0.0907 0.0678,-0.13741 0.007,-0.0466 -3.2e-4,-0.0922 -0.021,-0.13649 z"
       style="fill:#231f20;fill-opacity:1;fill-rule:nonzero;stroke:none;stroke-width:0.352778" />
    <path
       id="path202"
       d="m 81.928618,163.05771 0.597217,0.95589 -3.261219,3.4157 -0.542395,-0.86822 0.641808,-0.6633 -0.517807,-0.82867 -0.874783,0.29048 -0.545218,-0.8726 z m -1.939008,2.26018 1.193729,-1.12998 -1.547212,0.56437 z m 3.465018,2.23601 c 0,0 -0.0025,-0.0362 -0.0072,-0.10869 -0.0048,-0.0726 -0.0175,-0.16302 -0.03849,-0.27143 -0.02081,-0.10848 -0.0514,-0.2202 -0.09172,-0.33489 -0.04011,-0.11469 -0.09571,-0.21438 -0.166581,-0.29891 -0.05542,-0.066 -0.114018,-0.10897 -0.175825,-0.12919 -0.06177,-0.0201 -0.124001,-0.004 -0.186478,0.0485 -0.0592,0.0496 -0.08911,0.11081 -0.08999,0.18348 -7.05e-4,0.0726 0.01679,0.1603 0.05249,0.26303 0.03581,0.1028 0.07768,0.22617 0.125694,0.37038 0.0805,0.22959 0.131093,0.44362 0.151907,0.64209 0.02078,0.19851 -0.0068,0.38813 -0.08241,0.56861 -0.07571,0.18052 -0.223803,0.36329 -0.444289,0.54829 -0.210608,0.17681 -0.412997,0.29492 -0.607201,0.35422 -0.194098,0.0594 -0.377225,0.0735 -0.549098,0.0424 -0.172015,-0.0312 -0.33013,-0.0943 -0.47431,-0.1893 -0.144321,-0.095 -0.271815,-0.20853 -0.382587,-0.34051 -0.112925,-0.13472 -0.213607,-0.2898 -0.302014,-0.46542 -0.08841,-0.1755 -0.159808,-0.3575 -0.214206,-0.54588 -0.05429,-0.18842 -0.08798,-0.37391 -0.101,-0.55641 l 1.123491,-0.37581 c 0,0 0.0025,0.043 0.0071,0.12901 0.0049,0.086 0.01919,0.19322 0.0429,0.32181 0.02378,0.12848 0.06078,0.26289 0.110984,0.40301 0.0502,0.14009 0.120791,0.26419 0.211702,0.37239 0.07091,0.0845 0.13409,0.13159 0.189794,0.14108 0.0557,0.01 0.106504,-0.005 0.152718,-0.0437 0.069,-0.058 0.09818,-0.1319 0.08728,-0.22172 -0.01097,-0.0899 -0.03849,-0.19618 -0.08248,-0.31898 -0.0441,-0.1227 -0.0908,-0.2601 -0.139911,-0.4124 -0.0684,-0.22172 -0.103188,-0.42192 -0.104599,-0.60071 -0.0014,-0.17889 0.0369,-0.34381 0.1149,-0.4947 0.07811,-0.15088 0.202812,-0.29831 0.373909,-0.44189 0.259891,-0.21812 0.518195,-0.35161 0.774594,-0.40029 0.256399,-0.0486 0.496888,-0.0311 0.721501,0.0528 0.224508,0.0838 0.414302,0.21812 0.569383,0.40291 0.115218,0.1373 0.206023,0.2872 0.27231,0.4499 0.06639,0.16259 0.117016,0.32491 0.152011,0.4868 0.03478,0.16199 0.06138,0.30719 0.07969,0.43589 z m -1.47521,2.8968 3.178492,-3.29152 1.811408,1.74921 -0.761083,0.7881 -1.086097,-1.0488 -0.528214,0.54701 0.885296,0.85489 -0.70739,0.73251 -0.885296,-0.85492 -1.181805,1.22392 z m 5.877524,-0.85171 0.875983,0.70929 -1.971393,4.2914 -0.79569,-0.64428 0.390983,-0.83611 -0.759495,-0.615 -0.732508,0.5595 -0.799606,-0.64748 z m -1.097421,2.76831 0.760801,-1.45711 -1.279208,1.03741 z m 0.548711,2.5333 2.287904,-3.96272 0.87309,0.50412 -1.740006,3.01389 1.441803,0.83252 -0.547793,0.9488 z m 6.92291,-0.2945 -0.955922,-0.4457 -1.470801,3.15398 -0.913694,-0.42609 1.470801,-3.15401 -0.96079,-0.44799 0.463091,-0.993 2.830407,1.31992 z m 1.335899,4.139 1.0293,-4.4584 0.98238,0.2268 -0.391407,1.69538 1.479726,-1.4441 1.108287,0.25591 -1.760784,1.69672 0.822078,2.78257 -1.128501,-0.26049 -0.508176,-1.84369 -0.353307,0.28878 -0.297216,1.28743 z m 5.442799,1.0794 c -0.27651,-0.0389 -0.5183,-0.1391 -0.72531,-0.3005 -0.20712,-0.16139 -0.376312,-0.36311 -0.507615,-0.60501 -0.131375,-0.2418 -0.221298,-0.5061 -0.269805,-0.7928 -0.0484,-0.2867 -0.052,-0.57679 -0.0108,-0.8703 0.0424,-0.30219 0.128905,-0.5829 0.259327,-0.84208 0.130492,-0.2594 0.293583,-0.48493 0.489263,-0.67653 0.19573,-0.19159 0.41582,-0.33309 0.66023,-0.4246 0.2443,-0.0915 0.5013,-0.11828 0.77099,-0.0804 0.27641,0.0389 0.5182,0.139 0.72532,0.30043 0.20697,0.1615 0.37528,0.36407 0.50447,0.6078 0.1294,0.24388 0.2183,0.50909 0.26691,0.79569 0.0483,0.2867 0.0523,0.57471 0.0116,0.86399 -0.0419,0.29781 -0.12711,0.57661 -0.25591,0.83619 -0.12869,0.2595 -0.2909,0.4851 -0.48658,0.6767 -0.19583,0.19152 -0.41522,0.33432 -0.65811,0.42813 -0.24292,0.0939 -0.50101,0.12167 -0.77399,0.0833 z m -0.50151,-2.41339 c -0.0216,0.15307 -0.0253,0.30349 -0.0111,0.45078 0.014,0.14721 0.0474,0.28212 0.0998,0.40449 0.0524,0.12231 0.12601,0.2237 0.22091,0.30431 0.0948,0.0806 0.21389,0.13092 0.35729,0.15109 0.14341,0.0201 0.2727,0.004 0.38809,-0.0496 0.11543,-0.0531 0.2147,-0.13359 0.29754,-0.24119 0.0831,-0.1077 0.15088,-0.23051 0.20327,-0.36851 0.0525,-0.13797 0.0892,-0.28127 0.1101,-0.43028 0.0215,-0.15322 0.0251,-0.3023 0.0107,-0.44761 -0.0145,-0.1452 -0.0478,-0.27891 -0.10023,-0.40128 -0.0525,-0.12231 -0.1271,-0.22292 -0.22387,-0.30152 -0.097,-0.0788 -0.2154,-0.12788 -0.35521,-0.14761 -0.14351,-0.0201 -0.27192,-0.004 -0.38569,0.0499 -0.11363,0.0535 -0.21252,0.1318 -0.29662,0.23488 -0.0842,0.10323 -0.1524,0.2238 -0.20489,0.36181 -0.0525,0.1379 -0.0892,0.28141 -0.1101,0.43032 m 3.61198,-1.99221 0.8273,3.09859 0.59881,-3.1484 1.05939,-0.037 -1.10638,4.61712 -1.00249,0.035 -1.4412,-4.52822 z m 3.415,-0.21339 1.11622,-0.15692 1.79391,4.36859 -1.01371,0.14252 -0.34491,-0.85622 -0.9677,0.13603 -0.0904,0.91729 -1.01893,0.14319 z m 1.27621,2.69067 -0.54688,-1.55018 -0.11363,1.64299 z m 1.37459,-0.6423 c -0.0817,-0.26709 -0.12139,-0.54138 -0.1192,-0.82279 0.003,-0.28158 0.0488,-0.55079 0.1397,-0.80768 0.0909,-0.25693 0.22842,-0.482 0.41261,-0.67543 0.18422,-0.19329 0.41642,-0.33278 0.69659,-0.4185 0.3362,-0.10269 0.65631,-0.10509 0.96023,-0.007 0.30399,0.098 0.56078,0.2722 0.77068,0.5225 l -0.53689,0.87859 c -0.0869,-0.1307 -0.18271,-0.22278 -0.28731,-0.27619 -0.10459,-0.0534 -0.20859,-0.0811 -0.31199,-0.0831 -0.1033,-0.002 -0.1995,0.0104 -0.28861,0.0376 -0.13839,0.0423 -0.24751,0.11282 -0.32731,0.21132 -0.0798,0.0985 -0.13497,0.21311 -0.16527,0.34371 -0.0303,0.13049 -0.0404,0.26839 -0.0303,0.41359 0.0101,0.14521 0.0359,0.28551 0.0773,0.42108 0.0465,0.15212 0.10929,0.29231 0.18831,0.42101 0.0789,0.12862 0.16958,0.23681 0.27217,0.32441 0.10251,0.0878 0.21343,0.14711 0.33281,0.17798 0.11941,0.0309 0.24179,0.0271 0.36689,-0.0112 0.0891,-0.0272 0.17452,-0.0723 0.25601,-0.13539 0.0816,-0.0632 0.14841,-0.14542 0.20041,-0.2467 0.052,-0.10121 0.0776,-0.22359 0.0769,-0.36721 l 0.9652,0.3452 c -0.004,0.2348 -0.0634,0.45289 -0.1784,0.65429 -0.11501,0.2014 -0.2625,0.37342 -0.44242,0.51601 -0.17981,0.14259 -0.37038,0.24469 -0.57139,0.30621 -0.26049,0.0796 -0.51841,0.0877 -0.77378,0.0243 -0.25563,-0.0635 -0.49463,-0.17911 -0.71713,-0.34692 -0.2226,-0.16789 -0.4178,-0.37331 -0.58579,-0.6162 -0.16799,-0.24289 -0.29471,-0.50408 -0.38001,-0.78341 z m 0.3325,-3.82849 0.53911,0.25979 0.30149,-0.51679 0.55393,0.1137 -0.34213,0.87969 -0.67239,0.20553 -0.77551,-0.53792 z m 7.11602,0.28829 c 0,0 -0.0356,-0.007 -0.10689,-0.0212 -0.0713,-0.0142 -0.16203,-0.0252 -0.2721,-0.0331 -0.11021,-0.008 -0.22592,-0.007 -0.3472,0.002 -0.12122,0.009 -0.23181,0.037 -0.33183,0.0836 -0.0781,0.0364 -0.1349,0.0818 -0.17028,0.13628 -0.0355,0.0545 -0.036,0.11871 -10e-4,0.19272 0.0327,0.07 0.084,0.1148 0.15402,0.13441 0.07,0.0195 0.15917,0.0253 0.26758,0.0174 0.10862,-0.008 0.23862,-0.0165 0.39042,-0.0255 0.2425,-0.0183 0.46228,-0.0118 0.65948,0.0195 0.19721,0.0313 0.3731,0.1069 0.5279,0.2267 0.15469,0.11991 0.29302,0.3102 0.41473,0.57108 0.1161,0.2492 0.1778,0.47522 0.18489,0.67821 0.007,0.20292 -0.0266,0.38329 -0.10122,0.54141 -0.0747,0.15801 -0.17649,0.29439 -0.30561,0.40908 -0.12908,0.11472 -0.27167,0.20853 -0.42788,0.28131 -0.15932,0.0743 -0.33521,0.13141 -0.52769,0.17141 -0.1924,0.04 -0.38671,0.0618 -0.58282,0.0655 -0.196,0.004 -0.38389,-0.0117 -0.5636,-0.0464 l -0.0721,-1.18241 c 0,0 0.0421,0.009 0.1264,0.0264 0.0843,0.0175 0.19153,0.0315 0.32191,0.0419 0.13042,0.0103 0.2697,0.009 0.41801,-0.003 0.14841,-0.0122 0.28649,-0.0483 0.41458,-0.10799 0.0999,-0.0467 0.16182,-0.0956 0.18542,-0.1469 0.0236,-0.0513 0.0228,-0.10421 -0.003,-0.15882 -0.0381,-0.0817 -0.10188,-0.12897 -0.19148,-0.14167 -0.0896,-0.0127 -0.1995,-0.0137 -0.32939,-0.003 -0.13,0.0108 -0.27482,0.0203 -0.43463,0.0284 -0.23188,0.009 -0.43426,-0.01 -0.60727,-0.0546 -0.17321,-0.0449 -0.32261,-0.12453 -0.4481,-0.23901 -0.12573,-0.1144 -0.23572,-0.27301 -0.33012,-0.4754 -0.14337,-0.30762 -0.2055,-0.59161 -0.1862,-0.85192 0.0194,-0.26018 0.0986,-0.4879 0.2377,-0.68319 0.1391,-0.1952 0.31799,-0.34379 0.53661,-0.44581 0.16249,-0.0757 0.3308,-0.1246 0.505,-0.14647 0.17431,-0.022 0.34421,-0.029 0.50959,-0.0208 0.16542,0.008 0.3126,0.0201 0.44171,0.0358 l 0.0448,1.12388 z m -2.41522,-1.97407 0.5698,0.18228 0.2268,-0.55379 0.5642,0.0356 -0.21618,0.9186 -0.63729,0.29722 -0.84293,-0.42482 z m 6.4469,1.84107 0.5968,0.91892 -2.19417,1.4249 -2.49213,-3.83751 2.15512,-1.39961 0.59669,0.91891 -1.30959,0.85041 0.35098,0.54049 1.11891,-0.72658 0.55449,0.85397 -1.11879,0.72661 0.3931,0.60541 z m 0.65483,-1.87617 1.38469,1.77239 -0.79449,0.62071 -2.81711,-3.60571 0.6193,-0.4838 2.59359,0.92601 -1.43231,-1.83332 0.79452,-0.62081 2.81711,3.6057 -0.63161,0.4935 z m 3.21818,-4.68581 -0.71931,0.77138 2.54511,2.37342 -0.68749,0.73738 -2.54529,-2.37338 -0.72281,0.77519 -0.8014,-0.74718 2.13,-2.28403 z m 1.96801,1.18431 c 0.0263,-0.006 0.0954,-0.0348 0.20729,-0.0873 0.1119,-0.0526 0.2136,-0.1372 0.3048,-0.254 0.0658,-0.0842 0.101,-0.16602 0.1058,-0.24539 0.005,-0.0794 -0.02,-0.16101 -0.0744,-0.24511 -0.0543,-0.084 -0.1378,-0.1777 -0.25051,-0.2811 -0.11279,-0.1035 -0.25548,-0.2226 -0.4282,-0.3575 l -1.83328,-1.43232 0.62071,-0.79449 1.83328,1.43232 c 0.27432,0.21427 0.51301,0.4216 0.71642,0.62198 0.2032,0.20031 0.35539,0.4034 0.45639,0.60921 0.10089,0.20571 0.1331,0.42108 0.0963,0.64608 -0.0368,0.22493 -0.15812,0.46923 -0.36404,0.73272 -0.0975,0.12499 -0.20528,0.22451 -0.32318,0.29859 -0.118,0.0741 -0.2481,0.12559 -0.39048,0.1543 z m 3.72018,-2.9289 c -0.15529,0.24849 -0.33969,0.43 -0.55309,0.54448 -0.21339,0.11461 -0.4446,0.1724 -0.69349,0.17342 -0.24881,7.1e-4 -0.50532,-0.0445 -0.76972,-0.13652 -0.2642,-0.0919 -0.52388,-0.2176 -0.7789,-0.37698 l -1.99478,-1.24651 0.53428,-0.85499 1.99492,1.24647 c 0.1275,0.0797 0.25591,0.1457 0.38531,0.19812 0.12939,0.0524 0.25329,0.0852 0.37179,0.0982 0.11839,0.0131 0.2256,0.002 0.32131,-0.0339 0.0958,-0.0357 0.17469,-0.1033 0.23689,-0.20267 0.0639,-0.10231 0.0913,-0.205 0.0824,-0.30812 -0.009,-0.10319 -0.0467,-0.205 -0.11321,-0.30551 -0.0664,-0.1004 -0.15152,-0.19727 -0.2553,-0.29058 -0.1039,-0.0934 -0.2176,-0.17872 -0.3416,-0.25612 l -1.99482,-1.2465 0.53432,-0.8551 1.99489,1.24651 c 0.26949,0.16852 0.5032,0.35411 0.70069,0.55682 0.19762,0.20267 0.34822,0.41568 0.4519,0.63909 0.10372,0.22321 0.14842,0.4535 0.13462,0.69071 -0.0141,0.2371 -0.0968,0.47709 -0.24842,0.7197 m 1.29621,-2.162 -4.1801,-1.86111 0.68569,-1.53991 c 0.0728,-0.1638 0.1814,-0.29648 0.32541,-0.3985 0.14411,-0.10178 0.30829,-0.17209 0.49251,-0.21089 0.18429,-0.0387 0.3749,-0.0472 0.57221,-0.0254 0.1972,0.0218 0.3841,0.072 0.56077,0.1507 0.1609,0.0716 0.30752,0.15949 0.43981,0.26381 0.1324,0.10407 0.24419,0.21999 0.3356,0.34738 0.0914,0.12749 0.15981,0.26169 0.20521,0.4027 l 1.85208,-0.0244 -0.45,1.01078 -1.5464,0.0191 -0.16609,0.37317 1.2834,0.57143 z m -1.8742,-1.93813 0.25869,-0.58099 c 0.0168,-0.0379 0.0152,-0.082 -0.005,-0.13229 -0.02,-0.0504 -0.058,-0.1023 -0.11419,-0.15561 -0.0562,-0.0533 -0.13141,-0.10089 -0.22561,-0.1428 -0.0982,-0.0437 -0.18559,-0.0666 -0.26229,-0.0687 -0.0767,-0.002 -0.14143,0.009 -0.1942,0.0324 -0.0529,0.0236 -0.0877,0.0543 -0.10453,0.0921 l -0.24818,0.55739 z"
       style="fill:#231f20;fill-opacity:1;fill-rule:nonzero;stroke:none;stroke-width:0.352778" />
    <path
       id="path204"
       d="m 127.32043,149.20508 c 0.4452,0.0949 0.8388,0.31503 1.18088,0.66051 0.34202,0.3454 0.6108,0.77551 0.80631,1.29032 0.19541,0.51477 0.29309,1.0838 0.29309,1.70688 0,0.85351 -0.18729,1.58841 -0.56187,2.20479 -0.37472,0.61641 -0.90953,1.09393 -1.60443,1.43263 -0.69497,0.3387 -1.5203,0.508 -2.4758,0.508 -0.82528,0 -1.56368,-0.1355 -2.21519,-0.4064 -0.65158,-0.2709 -1.2325,-0.6773 -1.7429,-1.2192 l 1.58002,-2.8043 c 0.31489,0.29809 0.64879,0.52158 1.00168,0.67059 0.35292,0.14898 0.75741,0.22349 1.21352,0.22349 0.55379,0 0.95828,-0.10488 1.21348,-0.31489 0.2551,-0.21001 0.3827,-0.54529 0.3827,-1.00591 0,-0.51481 -0.16281,-0.88389 -0.4886,-1.10748 -0.32579,-0.22352 -0.85778,-0.33521 -1.59618,-0.33521 h -0.505 v -2.68231 h 0.57009 c 0.52119,0 0.9393,-0.12869 1.25419,-0.38608 0.31489,-0.25742 0.4723,-0.59612 0.4723,-1.0161 0,-0.21672 -0.0407,-0.40302 -0.12209,-0.5588 -0.0815,-0.15583 -0.20091,-0.27432 -0.35832,-0.3556 -0.15748,-0.0813 -0.35017,-0.12192 -0.57827,-0.12192 -0.36922,0 -0.72211,0.11849 -1.05873,0.3556 -0.33669,0.2371 -0.62988,0.5927 -0.87958,1.0668 l -1.9546,-2.86519 c 0.2606,-0.36569 0.6108,-0.68411 1.05061,-0.95501 0.43977,-0.271 0.93659,-0.48429 1.49038,-0.64008 0.55379,-0.15582 1.12392,-0.23371 1.7102,-0.23371 0.80359,0 1.50671,0.14901 2.1094,0.447 0.60261,0.2981 1.0723,0.71459 1.40892,1.24979 0.33659,0.53509 0.5049,1.16159 0.5049,1.8796 0,0.52832 -0.0922,1.02961 -0.27683,1.50371 -0.18457,0.47421 -0.43437,0.87041 -0.7493,1.18879 -0.31489,0.31831 -0.67328,0.5249 -1.07498,0.61969"
       style="fill:#ffffff;fill-opacity:1;fill-rule:nonzero;stroke:none;stroke-width:0.352778" />
    <path
       id="path205"
       d="m 138.68693,148.0672 c 0,1.1921 -0.19001,2.2522 -0.57009,3.18018 -0.38002,0.92791 -0.89313,1.65612 -1.53921,2.1844 -0.64611,0.52832 -1.38179,0.79252 -2.20701,0.79252 -0.81439,0 -1.5475,-0.2642 -2.19901,-0.79252 -0.65147,-0.52828 -1.1673,-1.25649 -1.54728,-2.1844 -0.38012,-0.92798 -0.57009,-1.98808 -0.57009,-3.18018 0,-1.19211 0.18997,-2.25221 0.57009,-3.18019 0.37998,-0.92791 0.89581,-1.6595 1.54728,-2.19463 0.65151,-0.53509 1.38991,-0.80257 2.2152,-0.80257 0.81442,0 1.54471,0.26748 2.19082,0.80257 0.64608,0.53513 1.15919,1.26672 1.53921,2.19463 0.38008,0.92798 0.57009,1.98808 0.57009,3.18019 z m -3.12731,0 c 0,-0.52829 -0.0516,-0.98891 -0.1548,-1.3818 -0.10308,-0.39292 -0.2443,-0.70111 -0.42351,-0.92459 -0.1791,-0.22352 -0.38269,-0.33532 -0.61069,-0.33532 -0.2389,0 -0.45071,0.1118 -0.63528,0.33532 -0.18461,0.22348 -0.32851,0.53167 -0.43163,0.92459 -0.10318,0.39289 -0.15469,0.85351 -0.15469,1.3818 0,0.52828 0.0515,0.9889 0.15469,1.38179 0.10312,0.39289 0.24702,0.69769 0.43163,0.9144 0.18457,0.21682 0.39638,0.32512 0.63528,0.32512 0.228,0 0.43159,-0.1083 0.61069,-0.32512 0.17921,-0.21671 0.32043,-0.52151 0.42351,-0.9144 0.10319,-0.39289 0.1548,-0.85351 0.1548,-1.38179"
       style="fill:#ffffff;fill-opacity:1;fill-rule:nonzero;stroke:none;stroke-width:0.352778" />
    <path
       id="path206"
       d="m 129.55563,151.88778 h 0.87869 v 3.27473 c 0,0.1215 0.0192,0.2147 0.0577,0.27968 0.0386,0.0649 0.0948,0.0974 0.16877,0.0974 0.037,0 0.0771,-0.008 0.12033,-0.0252 0.0431,-0.0167 0.0832,-0.0398 0.12019,-0.0691 l 0.11099,0.88 c -0.10478,0.067 -0.22278,0.11938 -0.35381,0.15709 -0.13098,0.0377 -0.25509,0.0566 -0.37228,0.0566 -0.23421,0 -0.41462,-0.0828 -0.54102,-0.24829 -0.1264,-0.16549 -0.18958,-0.40121 -0.18958,-0.7071 z"
       style="fill:#231f20;fill-opacity:1;fill-rule:nonzero;stroke:none;stroke-width:0.352778" />
    <path
       id="path207"
       d="m 132.19543,156.53898 c -0.21269,0 -0.40231,-0.0451 -0.56882,-0.13519 -0.16648,-0.0901 -0.306,-0.21258 -0.4185,-0.3677 -0.11257,-0.15501 -0.19809,-0.33309 -0.25668,-0.53421 -0.0586,-0.20119 -0.0878,-0.41278 -0.0878,-0.63479 0,-0.31848 0.0509,-0.6108 0.15261,-0.87679 0.10171,-0.2661 0.25118,-0.47981 0.44849,-0.6411 0.19741,-0.1614 0.4409,-0.24201 0.73071,-0.24201 0.2898,0 0.5334,0.0796 0.73071,0.2388 0.1972,0.15921 0.34678,0.36879 0.44848,0.62861 0.10181,0.25968 0.15272,0.54261 0.15272,0.8485 0,0.0628 -0.002,0.12668 -0.007,0.1917 -0.005,0.0649 -0.01,0.12249 -0.0162,0.17279 h -1.70639 c 0.006,0.1173 0.0301,0.21269 0.0717,0.286 0.0416,0.0733 0.094,0.12672 0.1572,0.1603 0.0632,0.0335 0.1287,0.0503 0.19661,0.0503 0.0955,0 0.1857,-0.0294 0.27051,-0.088 0.0847,-0.0587 0.141,-0.14037 0.1688,-0.24518 l 0.7445,0.28921 c -0.0648,0.17589 -0.1549,0.33097 -0.27061,0.4651 -0.1155,0.13409 -0.25199,0.23989 -0.40919,0.31739 -0.1572,0.0775 -0.33451,0.11628 -0.53181,0.11628 z m -0.41621,-2.06788 h 0.80472 c -0.009,-0.10901 -0.0316,-0.20112 -0.0671,-0.27661 -0.0355,-0.0754 -0.0817,-0.13409 -0.13868,-0.176 -0.0571,-0.0419 -0.12259,-0.0628 -0.1966,-0.0628 -0.0739,0 -0.13949,0.0209 -0.1965,0.0628 -0.057,0.0419 -0.10329,0.10061 -0.13882,0.176 -0.0354,0.0755 -0.0577,0.1676 -0.067,0.27661"
       style="fill:#231f20;fill-opacity:1;fill-rule:nonzero;stroke:none;stroke-width:0.352778" />
    <path
       id="path208"
       d="m 135.30234,156.2938 c -0.0802,0.0461 -0.1657,0.0891 -0.25672,0.1289 -0.0909,0.0398 -0.18341,0.0702 -0.27739,0.0911 -0.0941,0.021 -0.1857,0.0314 -0.2752,0.0314 -0.1325,0 -0.25431,-0.0303 -0.3653,-0.0911 -0.11102,-0.0608 -0.1996,-0.16129 -0.26592,-0.3017 -0.0663,-0.1404 -0.0994,-0.33002 -0.0994,-0.56881 v -1.5148 h -0.3006 v -0.8988 h 0.3006 V 152.133 h 0.87859 v 1.03699 h 0.47629 v 0.8988 H 134.641 v 1.09372 c 0,0.10887 0.0169,0.18538 0.0509,0.22938 0.0339,0.044 0.0802,0.066 0.13871,0.066 0.0431,0 0.0925,-0.0105 0.14799,-0.0314 0.0555,-0.021 0.11088,-0.0461 0.16648,-0.0755 z"
       style="fill:#231f20;fill-opacity:1;fill-rule:nonzero;stroke:none;stroke-width:0.352778" />
    <path
       id="path209"
       d="m 78.603617,145.26039 13.097297,-14.63121 c 2.946929,-3.29209 8.051306,-3.57449 11.343426,-0.62759 l 14.63128,13.0973 c 3.29209,2.94689 3.57449,8.0513 0.62749,11.34339 l -13.09719,14.63132 c -2.947,3.29208 -8.051379,3.57448 -11.343395,0.62748 L 79.231244,156.60389 c -3.292122,-2.947 -3.574521,-8.05141 -0.627627,-11.3435"
       style="fill:#ffffff;fill-opacity:1;fill-rule:evenodd;stroke:none;stroke-width:0.352778" />
    <path
       id="path210"
       d="m 86.29964,162.7442 c 1.94698,-1.50432 4.701469,-3.15309 7.516883,-4.53429 5.083598,-2.49142 9.962907,-4.16242 14.975807,-4.53051 3.41609,-0.25072 7.14809,0.074 9.09821,1.14159 l -13.3573,14.9208 c -2.2648,2.45699 -7.943002,2.37751 -10.440916,0.15769 z"
       style="fill:#f47216;fill-opacity:1;fill-rule:evenodd;stroke:none;stroke-width:0.352778" />
    <path
       id="path211"
       d="m 86.460287,162.53127 c 1.94727,-1.50413 4.360888,-3.01813 7.176654,-4.39936 5.083483,-2.49144 10.746619,-4.23049 15.759899,-4.59855 3.41621,-0.2507 6.36368,0.14197 8.31407,1.20967"
       style="fill:none;stroke:#231f20;stroke-width:0.402009;stroke-linecap:butt;stroke-linejoin:miter;stroke-miterlimit:22.9256;stroke-dasharray:none;stroke-opacity:1" />
    <path
       id="path212"
       d="m 87.077874,163.29927 c 1.825331,-1.36029 4.179291,-2.81244 6.751711,-4.00365 4.691987,-2.16759 9.818825,-3.544 14.267635,-3.63716 3.05558,-0.064 5.73202,0.72143 7.37347,1.8655"
       style="fill:none;stroke:#231f20;stroke-width:0.403729;stroke-linecap:butt;stroke-linejoin:miter;stroke-miterlimit:22.9256;stroke-dasharray:none;stroke-opacity:1" />
    <path
       id="path213"
       d="m 87.883418,164.02672 c 1.694407,-1.25761 3.871426,-2.56362 6.191324,-3.56328 4.20095,-1.80007 8.684768,-2.71431 12.447048,-2.39356 2.56715,0.21867 4.66448,1.19525 5.9675,2.49997"
       style="fill:none;stroke:#231f20;stroke-width:0.398545;stroke-linecap:butt;stroke-linejoin:miter;stroke-miterlimit:22.9256;stroke-dasharray:none;stroke-opacity:1" />
    <path
       id="path214"
       d="m 88.516437,164.65462 c 1.355964,-0.89209 3.087089,-1.83279 4.77595,-2.50249 3.818604,-1.50722 7.791013,-2.06082 11.043383,-1.43749 2.29251,0.43962 4.18352,1.62163 5.22522,3.10957"
       style="fill:none;stroke:#231f20;stroke-width:0.402406;stroke-linecap:butt;stroke-linejoin:miter;stroke-miterlimit:22.9256;stroke-dasharray:none;stroke-opacity:1" />
    <path
       id="path215"
       d="m 90.666181,166.75322 c 0.400628,-0.15593 1.207213,-0.43275 1.629185,-0.56253 2.830665,-0.86329 5.63248,-0.96759 7.821364,-0.28733 2.11763,0.65738 3.56274,2.18498 3.71335,4.0787"
       style="fill:none;stroke:#231f20;stroke-width:0.402207;stroke-linecap:butt;stroke-linejoin:miter;stroke-miterlimit:22.9256;stroke-dasharray:none;stroke-opacity:1" />
    <path
       id="path216"
       d="m 89.432816,165.47971 c 0.921829,-0.47277 2.127635,-1.01857 3.17956,-1.387 3.550418,-1.23077 7.201865,-1.58081 10.160994,-0.90799 2.06017,0.46846 3.74243,1.65852 4.66245,3.00059"
       style="fill:none;stroke:#231f20;stroke-width:0.402009;stroke-linecap:butt;stroke-linejoin:miter;stroke-miterlimit:22.9256;stroke-dasharray:none;stroke-opacity:1" />
    <path
       id="path217"
       d="m 76.315818,150.84299 7.235895,-0.34579 10.482227,-10.9637 18.37168,-0.99762 2.96852,2.74892 -17.924924,1.24439 7.761214,6.80212 5.7313,-0.29941 6.0489,-6.54611 2.24131,2.51189 -6.21732,7.33301 -11.557,0.664 -6.28248,6.37572 -0.287408,11.1053 -3.018507,-2.6924 -0.104387,-9.87171 4.606501,-4.95871 -5.690623,-4.86569 -5.391996,5.4605 -7.855091,0.33179 z"
       style="fill:#231f20;fill-opacity:1;fill-rule:evenodd;stroke:none;stroke-width:0.352778" />
    <path
       id="path218"
       d="m 87.06993,135.03608 c 2.311188,-0.12809 4.284909,1.58521 4.408981,3.827 0.124108,2.24102 -1.648671,4.1619 -3.959895,4.2896 -2.3108,0.12803 -4.284697,-1.58559 -4.408699,-3.82668 -0.124001,-2.2419 1.648919,-4.16221 3.959613,-4.28992"
       style="fill:#231f20;fill-opacity:1;fill-rule:evenodd;stroke:none;stroke-width:0.352778" />
    <path
       id="path219"
       d="M 78.603967,145.25984 91.70131,130.62856 c 2.946952,-3.29214 8.051307,-3.57462 11.34345,-0.62774 l 14.63118,13.09716 c 3.29209,2.94683 3.57446,8.05124 0.62743,11.34338 l -13.09725,14.63144 c -2.94698,3.29208 -8.051434,3.57456 -11.343371,0.62756 L 79.231538,156.60332 c -3.292106,-2.94692 -3.574481,-8.05131 -0.627571,-11.34348 z"
       style="fill:none;stroke:#231f20;stroke-width:0.923724;stroke-linecap:butt;stroke-linejoin:miter;stroke-miterlimit:2.61313;stroke-dasharray:none;stroke-opacity:1" />
    <path
       id="path220"
       d="m 104.5253,114.28052 c 18.86895,0 34.16561,15.29655 34.16561,34.16562 0,18.86934 -15.29666,34.1659 -34.16561,34.1659 -18.868942,0 -34.1656,-15.29656 -34.1656,-34.1659 0,-18.86907 15.296658,-34.16562 34.1656,-34.16562 z"
       style="fill:none;stroke:#231f20;stroke-width:1.01939;stroke-linecap:butt;stroke-linejoin:miter;stroke-miterlimit:22.9256;stroke-dasharray:none;stroke-opacity:1" />
  </g>
</svg>
