<?xml version="1.0" encoding="UTF-8"?>
<svg version="1.1" viewBox="0 0 2048 2048" width="512" height="512" xmlns="http://www.w3.org/2000/svg">
<path transform="translate(1580,116)" d="m0 0h19l18 3 16 5 16 7 16 10 14 12 9 9 5 6 15 4 17 5 20 8 16 8 16 9 15 10v-2l-7-14-9-12-11-11-16-10-11-5-13-4-10-3-4-3-1-8 3-5 3-2h10l15 4 12 5 13 7 12 9 10 9 8 9 10 16 6 13 4 12 2 16 22 22 11 14 11 15 12 20 13 27 9 25 7 26 4 22 3 30v39l-3 30-7 36-8 27-9 24-12 26-13 23-12 18-9 12-11 13-7 8-3 4h-2l-2 4-17 16-17 14-16 11-16 10-20 11-26 11-25 8-22 5-19 3-27 2h-15l-27-2-24-4-43-9-27-8-25-10-6-3-2 5-10 17-6 9 1 10 7 25 10 29 11 26 12 26 15 28 17 28 15 22 14 19 11 14 12 14 9 10 7 8 20 20 5-1 18-14 16-12 21-16 16-12 21-16 12-9 13-10 47-36 18-14 14-11 16-13 10-8 14-10 6-2 8 1 7 4 6 8 1 10-4 8-7 7-14 11-10 8-28 22-17 13-14 11-12 9-51 39-12 9-21 16-16 12-21 16-16 12-15 11-9 3-8-1-9-6-16-15-21-21-7-8-13-15-13-16-15-20-12-17-10-15-15-25-13-23-14-28-13-30-11-30-2-6-8 11-11 18-21 33-12 19-10 15-17 26-18 27-10 16-14 20-10 15-19 28-8 12-13 19-13 18-9 13-16 23-7 10-4 5v2l42 21 18 10 16 8 28 15 23 13 27 15 44 26 20 12 24 15 19 12 25 16 30 20 16 11 9 8 2 5 2 21 4 59 6 69 7 65 8 63 8 55 8 50 11 62 8 43 4-1 22-12 23-9 22-6 25-4h43l21 3 17 4 16 6 11 7 8 9 4 10 1 4v9l-4 14-7 11-9 8-16 8-18 6-25 5-15 2-14 1h-25l-25-2-28-5-28-7-21-7-8-5-4-6-4-16-13-65-12-68-10-64-9-67-7-58-7-72-4-49-4-55-11-8-32-21-25-16-19-12-20-12-28-17-22-13-28-16-27-15-22-12-32-17-23-12-38-19-3-1-2 5-9 12-13 18-12 16-7 10-10 13-8 11-42 56-13 17-8 10-12 16-7 9-11 14-13 16-10 13-12 15-9 11-12 13-10 10-15 11-16 8-17 5-7 1h-20l-18-3-27-9-54-23-42-18-26-11-54-23-134-57-35-15-2 19h6l11 6 11 9 10 9 14 14 11 15 8 17 4 13 2 13v10l-3 17-7 16-8 10-9 8-16 8-12 3h-18l-12-4-10-6-9-9-7-11-6-15-3-14-1-7-1-26 2-34 8-90 3-10 5-5 4-3 10-1 12 4 143 61 82 35 110 47 32 13 19 6 10 2h15l13-4 11-6 11-9 10-10 9-11 14-17 11-14 13-17 22-28 13-17 12-16 11-14 9-12 9-14 8-14 8-16 15-28 13-23 13-24 13-23 10-18 14-24 12-21 15-26 24-40 13-22 16-26 13-21 14-23 28-44 16-25 29-43 16-24 6-8v-2l-60-10-51-7-57-6-36-3-53-3-39-1h-2l-2 4-8 7-16 15-20 18-15 14-8 7-16 15-10 9-16 15-4 2v2l-8 7-15 14-8 7-6 6h-2v2l-8 7-13 12-16 15h-2v2l-8 7-13 12-10 9-14 13-8 7-13 12h-2v2l-9 6-4 1h-9l-8-5-4-5-2-5v-7l5-10 15-14 8-7 12-11 15-14 10-9 12-11 8-7 7-7 8-7 7-7 8-7 13-12 10-9 17-16 15-14 11-10 8-7 8-8 8-7 17-16 8-7 24-22 4-2v-2l8-7 11-10 9-6h35l46 2 55 4 49 5 48 6 52 8 45 8 7 1 2-5 9-16 5-10-1-4-12-13-9-11-14-19-15-25-9-19-9-23-7-23-6-29-3-25-1-17v-16l2-28 5-30 7-28 8-23 11-25 11-21 14-22 13-17 12-14 11-12 11-11 11-9 9-8 17-12 14-9 17-10 24-12 23-9 20-6 15-4-3-3-18-8-21-5-8-1h-29l-5-6v-7l4-5 7-2h31l16 3 18 6 16 8 11 7 6 5 11-2 24-5 16-2 36-2-13-10-16-8-14-5-15-3-23-2-4-4-1-8 3-5zm63 86-27 2-26 5-26 8-24 10-20 10-22 13-11 8-13 10-14 12-16 16v2h-2l-18 22-14 19-8 12-11 18-7 12-8 18-8 22-6 23-3 15-3 24v43l4 30 6 26 8 23 11 24 12 20 9 12 11 13 17 17 14 11 16 11 18 10 19 9 19 7 23 6 24 4 27 2h13l24-2 22-4 19-5 20-7 16-7 23-13 18-12 16-13 10-9 5-4v-2h2v-2h2v-2h2v-2h2l7-8 9-10 8-11 10-14 8-13 10-18 10-22 9-25 6-24 3-16 3-27v-45l-3-28-5-25-7-24-9-23-12-22-12-18-9-11-9-10-4-5-8-7-14-12-20-14-18-10-19-9-25-8-27-5zm-1186 1202-1 7-1 18v28l2 17 4 12 6 7 4 2h9l10-5 6-7 3-9v-15l-4-13-7-13-11-13-10-9-9-7zm1213 467-27 3-18 4-15 6-1 2 29 5 19 2h37l24-3 18-4 13-5 7-6-1-2-22-2z"/>
<path transform="translate(147,762)" d="m0 0h506l6 3 1 1v11l-6 5h-502l-9-1-5-5v-7l3-5z"/>
<path transform="translate(374,601)" d="m0 0h389l6 4 1 2v8l-4 5-4 1h-382l-10-2-3-4v-8l4-5z"/>
<path transform="translate(353,943)" d="m0 0h230l35 1 4 3 1 3v7l-5 6h-296l-5-5-1-6 3-6 2-2z"/>
<path transform="translate(1551,329)" d="m0 0h11l17 3 16 6 16 8 10 6 6 5 1 2v6l-6 7h-6l-10-5-5-3-1 10-6 10-5 4-11 4h-11l-8-3-8-7-5-10-1-10 3-9 2-4-28 9-5-3-3-4-1-4 4-7 12-6 14-4z"/>
<path transform="translate(1730,412)" d="m0 0h10l15 3 16 7 15 9 13 12 7 8 1 2v7l-8 7-6-2-4-1-4 6h-2v2l-5 4-8 3-8-1-9-6-6-8-4-10v-10l5-11-13-1-7-3-2-1-2-7 3-6z"/>
<path transform="translate(1461,485)" d="m0 0h7l6 5 1 7-2 6-1 14 2 11 5 12 6 8 7 7 16 9 4 5v5l-6 7h-7l-10-4-9-6-10-9-8-11-6-12-3-9-1-6v-21l4-13z"/>
</svg>
